<?xml version="1.0" encoding="utf-8"?>
<svg viewBox="0 0 375 177" version="1.1" xmlns:xlink="http://www.w3.org/1999/xlink" xmlns="http://www.w3.org/2000/svg">
  <desc>Created with Lunacy</desc>
  <g id="Group-2" transform="translate(77 112.0056)">
    <path d="M21.7234 3.59537L20.274 22.4379Q20.2689 22.504 20.2595 22.5696Q20.25 22.6352 20.2362 22.7Q20.2225 22.7648 20.2044 22.8286Q20.1864 22.8924 20.1642 22.9549Q20.1419 23.0173 20.1156 23.0781Q20.0893 23.139 20.059 23.1979Q20.0287 23.2569 19.9946 23.3137Q19.9605 23.3705 19.9227 23.425Q19.8849 23.4794 19.8435 23.5312Q19.8022 23.583 19.7575 23.632Q19.7128 23.681 19.665 23.7269Q19.6172 23.7728 19.5664 23.8154Q19.5157 23.858 19.4622 23.8972Q19.4087 23.9363 19.3528 23.9719Q19.2968 24.0074 19.2387 24.0392Q19.1805 24.0709 19.1203 24.0988Q19.0602 24.1266 18.9983 24.1504Q18.9364 24.1742 18.8731 24.1938Q18.8098 24.2135 18.7453 24.2289Q18.6809 24.2443 18.6155 24.2554Q18.5502 24.2665 18.4842 24.2732Q18.4183 24.2799 18.3521 24.2823Q18.2858 24.2847 18.2196 24.2826Q18.1533 24.2806 18.0873 24.2742Q18.0214 24.2678 17.956 24.257Q17.8906 24.2462 17.826 24.2311Q17.7615 24.216 17.6981 24.1967Q17.6347 24.1774 17.5727 24.1539Q17.5107 24.1304 17.4504 24.1029Q17.3901 24.0754 17.3318 24.0439Q17.2735 24.0124 17.2173 23.9771Q17.1612 23.9419 17.1075 23.903L2.61331 13.3947Q2.5619 13.3574 2.51295 13.3169Q2.464 13.2764 2.41772 13.233Q2.37144 13.1895 2.32802 13.1431Q2.28459 13.0968 2.24419 13.0478Q2.20379 12.9988 2.16659 12.9473Q2.12939 12.8958 2.09552 12.8421Q2.06166 12.7884 2.03128 12.7326Q2.00089 12.6768 1.97411 12.6192Q1.94733 12.5617 1.92425 12.5025Q1.90118 12.4433 1.88191 12.3828Q1.86264 12.3223 1.84725 12.2607Q1.83186 12.1991 1.82041 12.1366Q1.80896 12.0741 1.8015 12.0111Q1.79404 11.948 1.7906 11.8846Q1.78716 11.8212 1.78775 11.7576Q1.78834 11.6941 1.79296 11.6308Q1.79758 11.5675 1.80621 11.5045Q1.81485 11.4416 1.82745 11.3794Q1.84006 11.3171 1.8566 11.2558Q1.87313 11.1945 1.89353 11.1343Q1.91392 11.0742 1.93809 11.0155Q1.96226 10.9567 1.99011 10.8997Q2.01796 10.8426 2.04937 10.7874Q2.08079 10.7322 2.11565 10.6791Q2.1505 10.626 2.18866 10.5752Q2.22681 10.5245 2.26812 10.4762Q2.30942 10.428 2.3537 10.3825Q2.39798 10.3369 2.44506 10.2943Q2.49214 10.2517 2.54183 10.2121Q2.59153 10.1726 2.64363 10.1363Q2.69573 10.1 2.75003 10.067Q2.80433 10.0341 2.86062 10.0047L18.8043 1.67049Q18.8632 1.63967 18.9241 1.61284Q18.985 1.58601 19.0475 1.56328Q19.1101 1.54056 19.174 1.52204Q19.2379 1.50353 19.3028 1.4893Q19.3678 1.47507 19.4336 1.4652Q19.4994 1.45532 19.5657 1.44984Q19.632 1.44437 19.6986 1.44331Q19.7651 1.44225 19.8315 1.44562Q19.898 1.44899 19.964 1.45677Q20.0301 1.46454 20.0955 1.4767Q20.1609 1.48885 20.2254 1.50533Q20.2898 1.52181 20.3531 1.54253Q20.4163 1.56326 20.478 1.58814Q20.5397 1.61302 20.5996 1.64195Q20.6595 1.67089 20.7174 1.70374Q20.7752 1.73659 20.8308 1.77321Q20.8863 1.80983 20.9393 1.85007Q20.9923 1.89031 21.0425 1.93398Q21.0926 1.97765 21.1398 2.02456Q21.187 2.07147 21.231 2.12141Q21.2749 2.17135 21.3154 2.22411Q21.356 2.27686 21.3929 2.3322Q21.4299 2.38753 21.463 2.4452Q21.4962 2.50286 21.5255 2.56261Q21.5547 2.62235 21.58 2.68391Q21.6052 2.74547 21.6263 2.80857Q21.6474 2.87168 21.6642 2.93604Q21.6811 3.0004 21.6936 3.06574Q21.7061 3.13108 21.7143 3.19711Q21.7224 3.26314 21.7262 3.32956Q21.7299 3.39599 21.7292 3.46251Q21.7285 3.52904 21.7234 3.59537L21.7234 3.59537Z" transform="translate(10 3)" id="Rectangle-Copy-4" fill="#F0F1FF" stroke="none" />
    <path d="M21.7234 3.59537L20.274 22.4379Q20.2689 22.504 20.2595 22.5696Q20.25 22.6352 20.2362 22.7Q20.2225 22.7648 20.2044 22.8286Q20.1864 22.8924 20.1642 22.9549Q20.1419 23.0173 20.1156 23.0781Q20.0893 23.139 20.059 23.1979Q20.0287 23.2569 19.9946 23.3137Q19.9605 23.3705 19.9227 23.425Q19.8849 23.4794 19.8435 23.5312Q19.8022 23.583 19.7575 23.632Q19.7128 23.681 19.665 23.7269Q19.6172 23.7728 19.5664 23.8154Q19.5157 23.858 19.4622 23.8972Q19.4087 23.9363 19.3528 23.9719Q19.2968 24.0074 19.2387 24.0392Q19.1805 24.0709 19.1203 24.0988Q19.0602 24.1266 18.9983 24.1504Q18.9364 24.1742 18.8731 24.1938Q18.8098 24.2135 18.7453 24.2289Q18.6809 24.2443 18.6155 24.2554Q18.5502 24.2665 18.4842 24.2732Q18.4183 24.2799 18.3521 24.2823Q18.2858 24.2847 18.2196 24.2826Q18.1533 24.2806 18.0873 24.2742Q18.0214 24.2678 17.956 24.257Q17.8906 24.2462 17.826 24.2311Q17.7615 24.216 17.6981 24.1967Q17.6347 24.1774 17.5727 24.1539Q17.5107 24.1304 17.4504 24.1029Q17.3901 24.0754 17.3318 24.0439Q17.2735 24.0124 17.2173 23.9771Q17.1612 23.9419 17.1075 23.903L2.61331 13.3947Q2.5619 13.3574 2.51295 13.3169Q2.464 13.2764 2.41772 13.233Q2.37144 13.1895 2.32802 13.1431Q2.28459 13.0968 2.24419 13.0478Q2.20379 12.9988 2.16659 12.9473Q2.12939 12.8958 2.09552 12.8421Q2.06166 12.7884 2.03128 12.7326Q2.00089 12.6768 1.97411 12.6192Q1.94733 12.5617 1.92425 12.5025Q1.90118 12.4433 1.88191 12.3828Q1.86264 12.3223 1.84725 12.2607Q1.83186 12.1991 1.82041 12.1366Q1.80896 12.0741 1.8015 12.0111Q1.79404 11.948 1.7906 11.8846Q1.78716 11.8212 1.78775 11.7576Q1.78834 11.6941 1.79296 11.6308Q1.79758 11.5675 1.80621 11.5045Q1.81485 11.4416 1.82745 11.3794Q1.84006 11.3171 1.8566 11.2558Q1.87313 11.1945 1.89353 11.1343Q1.91392 11.0742 1.93809 11.0155Q1.96226 10.9567 1.99011 10.8997Q2.01796 10.8426 2.04937 10.7874Q2.08079 10.7322 2.11565 10.6791Q2.1505 10.626 2.18866 10.5752Q2.22681 10.5245 2.26812 10.4762Q2.30942 10.428 2.3537 10.3825Q2.39798 10.3369 2.44506 10.2943Q2.49214 10.2517 2.54183 10.2121Q2.59153 10.1726 2.64363 10.1363Q2.69573 10.1 2.75003 10.067Q2.80433 10.0341 2.86062 10.0047L18.8043 1.67049Q18.8632 1.63967 18.9241 1.61284Q18.985 1.58601 19.0475 1.56328Q19.1101 1.54056 19.174 1.52204Q19.2379 1.50353 19.3028 1.4893Q19.3678 1.47507 19.4336 1.4652Q19.4994 1.45532 19.5657 1.44984Q19.632 1.44437 19.6986 1.44331Q19.7651 1.44225 19.8315 1.44562Q19.898 1.44899 19.964 1.45677Q20.0301 1.46454 20.0955 1.4767Q20.1609 1.48885 20.2254 1.50533Q20.2898 1.52181 20.3531 1.54253Q20.4163 1.56326 20.478 1.58814Q20.5397 1.61302 20.5996 1.64195Q20.6595 1.67089 20.7174 1.70374Q20.7752 1.73659 20.8308 1.77321Q20.8863 1.80983 20.9393 1.85007Q20.9923 1.89031 21.0425 1.93398Q21.0926 1.97765 21.1398 2.02456Q21.187 2.07147 21.231 2.12141Q21.2749 2.17135 21.3154 2.22411Q21.356 2.27686 21.3929 2.3322Q21.4299 2.38753 21.463 2.4452Q21.4962 2.50286 21.5255 2.56261Q21.5547 2.62235 21.58 2.68391Q21.6052 2.74547 21.6263 2.80857Q21.6474 2.87168 21.6642 2.93604Q21.6811 3.0004 21.6936 3.06574Q21.7061 3.13108 21.7143 3.19711Q21.7224 3.26314 21.7262 3.32956Q21.7299 3.39599 21.7292 3.46251Q21.7285 3.52904 21.7234 3.59537L21.7234 3.59537Z" id="Rectangle-Copy" fill="none" stroke="#252A7C" stroke-width="3" />
  </g>
  <g id="Group-2-Copy-3" transform="matrix(0.4539905 0.8910065 -0.8910065 0.4539905 10.83923 112.4648)">
    <path d="M21.7234 3.59537L20.274 22.4379Q20.2689 22.504 20.2595 22.5696Q20.25 22.6352 20.2362 22.7Q20.2225 22.7648 20.2044 22.8286Q20.1864 22.8924 20.1642 22.9549Q20.1419 23.0173 20.1156 23.0781Q20.0893 23.139 20.059 23.1979Q20.0287 23.2569 19.9946 23.3137Q19.9605 23.3705 19.9227 23.425Q19.8849 23.4794 19.8435 23.5312Q19.8022 23.583 19.7575 23.632Q19.7128 23.681 19.665 23.7269Q19.6172 23.7728 19.5664 23.8154Q19.5157 23.858 19.4622 23.8972Q19.4087 23.9363 19.3528 23.9719Q19.2968 24.0074 19.2387 24.0392Q19.1805 24.0709 19.1203 24.0988Q19.0602 24.1266 18.9983 24.1504Q18.9364 24.1742 18.8731 24.1938Q18.8098 24.2135 18.7453 24.2289Q18.6809 24.2443 18.6155 24.2554Q18.5502 24.2665 18.4842 24.2732Q18.4183 24.2799 18.3521 24.2823Q18.2858 24.2847 18.2196 24.2826Q18.1533 24.2806 18.0873 24.2742Q18.0214 24.2678 17.956 24.257Q17.8906 24.2462 17.826 24.2311Q17.7615 24.216 17.6981 24.1967Q17.6347 24.1774 17.5727 24.1539Q17.5107 24.1304 17.4504 24.1029Q17.3901 24.0754 17.3318 24.0439Q17.2735 24.0124 17.2173 23.9771Q17.1612 23.9419 17.1075 23.903L2.61331 13.3947Q2.5619 13.3574 2.51295 13.3169Q2.464 13.2764 2.41772 13.233Q2.37144 13.1895 2.32802 13.1431Q2.28459 13.0968 2.24419 13.0478Q2.20379 12.9988 2.16659 12.9473Q2.12939 12.8958 2.09552 12.8421Q2.06166 12.7884 2.03128 12.7326Q2.00089 12.6768 1.97411 12.6192Q1.94733 12.5617 1.92425 12.5025Q1.90118 12.4433 1.88191 12.3828Q1.86264 12.3223 1.84725 12.2607Q1.83186 12.1991 1.82041 12.1366Q1.80896 12.0741 1.8015 12.0111Q1.79404 11.948 1.7906 11.8846Q1.78716 11.8212 1.78775 11.7576Q1.78834 11.6941 1.79296 11.6308Q1.79758 11.5675 1.80621 11.5045Q1.81485 11.4416 1.82745 11.3794Q1.84006 11.3171 1.8566 11.2558Q1.87313 11.1945 1.89353 11.1343Q1.91392 11.0742 1.93809 11.0155Q1.96226 10.9567 1.99011 10.8997Q2.01796 10.8426 2.04937 10.7874Q2.08079 10.7322 2.11565 10.6791Q2.1505 10.626 2.18866 10.5752Q2.22681 10.5245 2.26812 10.4762Q2.30942 10.428 2.3537 10.3825Q2.39798 10.3369 2.44506 10.2943Q2.49214 10.2517 2.54183 10.2121Q2.59153 10.1726 2.64363 10.1363Q2.69573 10.1 2.75003 10.067Q2.80433 10.0341 2.86062 10.0047L18.8043 1.67049Q18.8632 1.63967 18.9241 1.61284Q18.985 1.58601 19.0475 1.56328Q19.1101 1.54056 19.174 1.52204Q19.2379 1.50353 19.3028 1.4893Q19.3678 1.47507 19.4336 1.4652Q19.4994 1.45532 19.5657 1.44984Q19.632 1.44437 19.6986 1.44331Q19.7651 1.44225 19.8315 1.44562Q19.898 1.44899 19.964 1.45677Q20.0301 1.46454 20.0955 1.4767Q20.1609 1.48885 20.2254 1.50533Q20.2898 1.52181 20.3531 1.54253Q20.4163 1.56326 20.478 1.58814Q20.5397 1.61302 20.5996 1.64195Q20.6595 1.67089 20.7174 1.70374Q20.7752 1.73659 20.8308 1.77321Q20.8863 1.80983 20.9393 1.85007Q20.9923 1.89031 21.0425 1.93398Q21.0926 1.97765 21.1398 2.02456Q21.187 2.07147 21.231 2.12141Q21.2749 2.17135 21.3154 2.22411Q21.356 2.27686 21.3929 2.3322Q21.4299 2.38753 21.463 2.4452Q21.4962 2.50286 21.5255 2.56261Q21.5547 2.62235 21.58 2.68391Q21.6052 2.74547 21.6263 2.80857Q21.6474 2.87168 21.6642 2.93604Q21.6811 3.0004 21.6936 3.06574Q21.7061 3.13108 21.7143 3.19711Q21.7224 3.26314 21.7262 3.32956Q21.7299 3.39599 21.7292 3.46251Q21.7285 3.52904 21.7234 3.59537L21.7234 3.59537Z" transform="translate(10 3)" id="Rectangle-Copy-4" fill="#F0F1FF" stroke="none" />
    <path d="M21.7234 3.59537L20.274 22.4379Q20.2689 22.504 20.2595 22.5696Q20.25 22.6352 20.2362 22.7Q20.2225 22.7648 20.2044 22.8286Q20.1864 22.8924 20.1642 22.9549Q20.1419 23.0173 20.1156 23.0781Q20.0893 23.139 20.059 23.1979Q20.0287 23.2569 19.9946 23.3137Q19.9605 23.3705 19.9227 23.425Q19.8849 23.4794 19.8435 23.5312Q19.8022 23.583 19.7575 23.632Q19.7128 23.681 19.665 23.7269Q19.6172 23.7728 19.5664 23.8154Q19.5157 23.858 19.4622 23.8972Q19.4087 23.9363 19.3528 23.9719Q19.2968 24.0074 19.2387 24.0392Q19.1805 24.0709 19.1203 24.0988Q19.0602 24.1266 18.9983 24.1504Q18.9364 24.1742 18.8731 24.1938Q18.8098 24.2135 18.7453 24.2289Q18.6809 24.2443 18.6155 24.2554Q18.5502 24.2665 18.4842 24.2732Q18.4183 24.2799 18.3521 24.2823Q18.2858 24.2847 18.2196 24.2826Q18.1533 24.2806 18.0873 24.2742Q18.0214 24.2678 17.956 24.257Q17.8906 24.2462 17.826 24.2311Q17.7615 24.216 17.6981 24.1967Q17.6347 24.1774 17.5727 24.1539Q17.5107 24.1304 17.4504 24.1029Q17.3901 24.0754 17.3318 24.0439Q17.2735 24.0124 17.2173 23.9771Q17.1612 23.9419 17.1075 23.903L2.61331 13.3947Q2.5619 13.3574 2.51295 13.3169Q2.464 13.2764 2.41772 13.233Q2.37144 13.1895 2.32802 13.1431Q2.28459 13.0968 2.24419 13.0478Q2.20379 12.9988 2.16659 12.9473Q2.12939 12.8958 2.09552 12.8421Q2.06166 12.7884 2.03128 12.7326Q2.00089 12.6768 1.97411 12.6192Q1.94733 12.5617 1.92425 12.5025Q1.90118 12.4433 1.88191 12.3828Q1.86264 12.3223 1.84725 12.2607Q1.83186 12.1991 1.82041 12.1366Q1.80896 12.0741 1.8015 12.0111Q1.79404 11.948 1.7906 11.8846Q1.78716 11.8212 1.78775 11.7576Q1.78834 11.6941 1.79296 11.6308Q1.79758 11.5675 1.80621 11.5045Q1.81485 11.4416 1.82745 11.3794Q1.84006 11.3171 1.8566 11.2558Q1.87313 11.1945 1.89353 11.1343Q1.91392 11.0742 1.93809 11.0155Q1.96226 10.9567 1.99011 10.8997Q2.01796 10.8426 2.04937 10.7874Q2.08079 10.7322 2.11565 10.6791Q2.1505 10.626 2.18866 10.5752Q2.22681 10.5245 2.26812 10.4762Q2.30942 10.428 2.3537 10.3825Q2.39798 10.3369 2.44506 10.2943Q2.49214 10.2517 2.54183 10.2121Q2.59153 10.1726 2.64363 10.1363Q2.69573 10.1 2.75003 10.067Q2.80433 10.0341 2.86062 10.0047L18.8043 1.67049Q18.8632 1.63967 18.9241 1.61284Q18.985 1.58601 19.0475 1.56328Q19.1101 1.54056 19.174 1.52204Q19.2379 1.50353 19.3028 1.4893Q19.3678 1.47507 19.4336 1.4652Q19.4994 1.45532 19.5657 1.44984Q19.632 1.44437 19.6986 1.44331Q19.7651 1.44225 19.8315 1.44562Q19.898 1.44899 19.964 1.45677Q20.0301 1.46454 20.0955 1.4767Q20.1609 1.48885 20.2254 1.50533Q20.2898 1.52181 20.3531 1.54253Q20.4163 1.56326 20.478 1.58814Q20.5397 1.61302 20.5996 1.64195Q20.6595 1.67089 20.7174 1.70374Q20.7752 1.73659 20.8308 1.77321Q20.8863 1.80983 20.9393 1.85007Q20.9923 1.89031 21.0425 1.93398Q21.0926 1.97765 21.1398 2.02456Q21.187 2.07147 21.231 2.12141Q21.2749 2.17135 21.3154 2.22411Q21.356 2.27686 21.3929 2.3322Q21.4299 2.38753 21.463 2.4452Q21.4962 2.50286 21.5255 2.56261Q21.5547 2.62235 21.58 2.68391Q21.6052 2.74547 21.6263 2.80857Q21.6474 2.87168 21.6642 2.93604Q21.6811 3.0004 21.6936 3.06574Q21.7061 3.13108 21.7143 3.19711Q21.7224 3.26314 21.7262 3.32956Q21.7299 3.39599 21.7292 3.46251Q21.7285 3.52904 21.7234 3.59537L21.7234 3.59537Z" id="Rectangle-Copy" fill="none" stroke="#252A7C" stroke-width="3" />
  </g>
  <g id="Group-2-Copy" transform="matrix(-0.06975648 0.9975641 -0.9975641 -0.06975648 281.7642 122.3542)">
    <path d="M21.7234 3.59537L20.274 22.4379Q20.2689 22.504 20.2595 22.5696Q20.25 22.6352 20.2362 22.7Q20.2225 22.7648 20.2044 22.8286Q20.1864 22.8924 20.1642 22.9549Q20.1419 23.0173 20.1156 23.0781Q20.0893 23.139 20.059 23.1979Q20.0287 23.2569 19.9946 23.3137Q19.9605 23.3705 19.9227 23.425Q19.8849 23.4794 19.8435 23.5312Q19.8022 23.583 19.7575 23.632Q19.7128 23.681 19.665 23.7269Q19.6172 23.7728 19.5664 23.8154Q19.5157 23.858 19.4622 23.8972Q19.4087 23.9363 19.3528 23.9719Q19.2968 24.0074 19.2387 24.0392Q19.1805 24.0709 19.1203 24.0988Q19.0602 24.1266 18.9983 24.1504Q18.9364 24.1742 18.8731 24.1938Q18.8098 24.2135 18.7453 24.2289Q18.6809 24.2443 18.6155 24.2554Q18.5502 24.2665 18.4842 24.2732Q18.4183 24.2799 18.3521 24.2823Q18.2858 24.2847 18.2196 24.2826Q18.1533 24.2806 18.0873 24.2742Q18.0214 24.2678 17.956 24.257Q17.8906 24.2462 17.826 24.2311Q17.7615 24.216 17.6981 24.1967Q17.6347 24.1774 17.5727 24.1539Q17.5107 24.1304 17.4504 24.1029Q17.3901 24.0754 17.3318 24.0439Q17.2735 24.0124 17.2173 23.9771Q17.1612 23.9419 17.1075 23.903L2.61331 13.3947Q2.5619 13.3574 2.51295 13.3169Q2.464 13.2764 2.41772 13.233Q2.37144 13.1895 2.32802 13.1431Q2.28459 13.0968 2.24419 13.0478Q2.20379 12.9988 2.16659 12.9473Q2.12939 12.8958 2.09552 12.8421Q2.06166 12.7884 2.03128 12.7326Q2.00089 12.6768 1.97411 12.6192Q1.94733 12.5617 1.92425 12.5025Q1.90118 12.4433 1.88191 12.3828Q1.86264 12.3223 1.84725 12.2607Q1.83186 12.1991 1.82041 12.1366Q1.80896 12.0741 1.8015 12.0111Q1.79404 11.948 1.7906 11.8846Q1.78716 11.8212 1.78775 11.7576Q1.78834 11.6941 1.79296 11.6308Q1.79758 11.5675 1.80621 11.5045Q1.81485 11.4416 1.82745 11.3794Q1.84006 11.3171 1.8566 11.2558Q1.87313 11.1945 1.89353 11.1343Q1.91392 11.0742 1.93809 11.0155Q1.96226 10.9567 1.99011 10.8997Q2.01796 10.8426 2.04937 10.7874Q2.08079 10.7322 2.11565 10.6791Q2.1505 10.626 2.18866 10.5752Q2.22681 10.5245 2.26812 10.4762Q2.30942 10.428 2.3537 10.3825Q2.39798 10.3369 2.44506 10.2943Q2.49214 10.2517 2.54183 10.2121Q2.59153 10.1726 2.64363 10.1363Q2.69573 10.1 2.75003 10.067Q2.80433 10.0341 2.86062 10.0047L18.8043 1.67049Q18.8632 1.63967 18.9241 1.61284Q18.985 1.58601 19.0475 1.56328Q19.1101 1.54056 19.174 1.52204Q19.2379 1.50353 19.3028 1.4893Q19.3678 1.47507 19.4336 1.4652Q19.4994 1.45532 19.5657 1.44984Q19.632 1.44437 19.6986 1.44331Q19.7651 1.44225 19.8315 1.44562Q19.898 1.44899 19.964 1.45677Q20.0301 1.46454 20.0955 1.4767Q20.1609 1.48885 20.2254 1.50533Q20.2898 1.52181 20.3531 1.54253Q20.4163 1.56326 20.478 1.58814Q20.5397 1.61302 20.5996 1.64195Q20.6595 1.67089 20.7174 1.70374Q20.7752 1.73659 20.8308 1.77321Q20.8863 1.80983 20.9393 1.85007Q20.9923 1.89031 21.0425 1.93398Q21.0926 1.97765 21.1398 2.02456Q21.187 2.07147 21.231 2.12141Q21.2749 2.17135 21.3154 2.22411Q21.356 2.27686 21.3929 2.3322Q21.4299 2.38753 21.463 2.4452Q21.4962 2.50286 21.5255 2.56261Q21.5547 2.62235 21.58 2.68391Q21.6052 2.74547 21.6263 2.80857Q21.6474 2.87168 21.6642 2.93604Q21.6811 3.0004 21.6936 3.06574Q21.7061 3.13108 21.7143 3.19711Q21.7224 3.26314 21.7262 3.32956Q21.7299 3.39599 21.7292 3.46251Q21.7285 3.52904 21.7234 3.59537L21.7234 3.59537Z" transform="translate(10 3)" id="Rectangle-Copy-4" fill="#F0F1FF" stroke="none" />
    <path d="M21.7234 3.59537L20.274 22.4379Q20.2689 22.504 20.2595 22.5696Q20.25 22.6352 20.2362 22.7Q20.2225 22.7648 20.2044 22.8286Q20.1864 22.8924 20.1642 22.9549Q20.1419 23.0173 20.1156 23.0781Q20.0893 23.139 20.059 23.1979Q20.0287 23.2569 19.9946 23.3137Q19.9605 23.3705 19.9227 23.425Q19.8849 23.4794 19.8435 23.5312Q19.8022 23.583 19.7575 23.632Q19.7128 23.681 19.665 23.7269Q19.6172 23.7728 19.5664 23.8154Q19.5157 23.858 19.4622 23.8972Q19.4087 23.9363 19.3528 23.9719Q19.2968 24.0074 19.2387 24.0392Q19.1805 24.0709 19.1203 24.0988Q19.0602 24.1266 18.9983 24.1504Q18.9364 24.1742 18.8731 24.1938Q18.8098 24.2135 18.7453 24.2289Q18.6809 24.2443 18.6155 24.2554Q18.5502 24.2665 18.4842 24.2732Q18.4183 24.2799 18.3521 24.2823Q18.2858 24.2847 18.2196 24.2826Q18.1533 24.2806 18.0873 24.2742Q18.0214 24.2678 17.956 24.257Q17.8906 24.2462 17.826 24.2311Q17.7615 24.216 17.6981 24.1967Q17.6347 24.1774 17.5727 24.1539Q17.5107 24.1304 17.4504 24.1029Q17.3901 24.0754 17.3318 24.0439Q17.2735 24.0124 17.2173 23.9771Q17.1612 23.9419 17.1075 23.903L2.61331 13.3947Q2.5619 13.3574 2.51295 13.3169Q2.464 13.2764 2.41772 13.233Q2.37144 13.1895 2.32802 13.1431Q2.28459 13.0968 2.24419 13.0478Q2.20379 12.9988 2.16659 12.9473Q2.12939 12.8958 2.09552 12.8421Q2.06166 12.7884 2.03128 12.7326Q2.00089 12.6768 1.97411 12.6192Q1.94733 12.5617 1.92425 12.5025Q1.90118 12.4433 1.88191 12.3828Q1.86264 12.3223 1.84725 12.2607Q1.83186 12.1991 1.82041 12.1366Q1.80896 12.0741 1.8015 12.0111Q1.79404 11.948 1.7906 11.8846Q1.78716 11.8212 1.78775 11.7576Q1.78834 11.6941 1.79296 11.6308Q1.79758 11.5675 1.80621 11.5045Q1.81485 11.4416 1.82745 11.3794Q1.84006 11.3171 1.8566 11.2558Q1.87313 11.1945 1.89353 11.1343Q1.91392 11.0742 1.93809 11.0155Q1.96226 10.9567 1.99011 10.8997Q2.01796 10.8426 2.04937 10.7874Q2.08079 10.7322 2.11565 10.6791Q2.1505 10.626 2.18866 10.5752Q2.22681 10.5245 2.26812 10.4762Q2.30942 10.428 2.3537 10.3825Q2.39798 10.3369 2.44506 10.2943Q2.49214 10.2517 2.54183 10.2121Q2.59153 10.1726 2.64363 10.1363Q2.69573 10.1 2.75003 10.067Q2.80433 10.0341 2.86062 10.0047L18.8043 1.67049Q18.8632 1.63967 18.9241 1.61284Q18.985 1.58601 19.0475 1.56328Q19.1101 1.54056 19.174 1.52204Q19.2379 1.50353 19.3028 1.4893Q19.3678 1.47507 19.4336 1.4652Q19.4994 1.45532 19.5657 1.44984Q19.632 1.44437 19.6986 1.44331Q19.7651 1.44225 19.8315 1.44562Q19.898 1.44899 19.964 1.45677Q20.0301 1.46454 20.0955 1.4767Q20.1609 1.48885 20.2254 1.50533Q20.2898 1.52181 20.3531 1.54253Q20.4163 1.56326 20.478 1.58814Q20.5397 1.61302 20.5996 1.64195Q20.6595 1.67089 20.7174 1.70374Q20.7752 1.73659 20.8308 1.77321Q20.8863 1.80983 20.9393 1.85007Q20.9923 1.89031 21.0425 1.93398Q21.0926 1.97765 21.1398 2.02456Q21.187 2.07147 21.231 2.12141Q21.2749 2.17135 21.3154 2.22411Q21.356 2.27686 21.3929 2.3322Q21.4299 2.38753 21.463 2.4452Q21.4962 2.50286 21.5255 2.56261Q21.5547 2.62235 21.58 2.68391Q21.6052 2.74547 21.6263 2.80857Q21.6474 2.87168 21.6642 2.93604Q21.6811 3.0004 21.6936 3.06574Q21.7061 3.13108 21.7143 3.19711Q21.7224 3.26314 21.7262 3.32956Q21.7299 3.39599 21.7292 3.46251Q21.7285 3.52904 21.7234 3.59537L21.7234 3.59537Z" id="Rectangle-Copy" fill="none" stroke="#252A7C" stroke-width="3" />
  </g>
  <g id="Group-2-Copy-2" transform="matrix(-0.5446391 0.8386706 -0.8386706 -0.5446391 191.0583 59.78223)">
    <path d="M21.7234 3.59537L20.274 22.4379Q20.2689 22.504 20.2595 22.5696Q20.25 22.6352 20.2362 22.7Q20.2225 22.7648 20.2044 22.8286Q20.1864 22.8924 20.1642 22.9549Q20.1419 23.0173 20.1156 23.0781Q20.0893 23.139 20.059 23.1979Q20.0287 23.2569 19.9946 23.3137Q19.9605 23.3705 19.9227 23.425Q19.8849 23.4794 19.8435 23.5312Q19.8022 23.583 19.7575 23.632Q19.7128 23.681 19.665 23.7269Q19.6172 23.7728 19.5664 23.8154Q19.5157 23.858 19.4622 23.8972Q19.4087 23.9363 19.3528 23.9719Q19.2968 24.0074 19.2387 24.0392Q19.1805 24.0709 19.1203 24.0988Q19.0602 24.1266 18.9983 24.1504Q18.9364 24.1742 18.8731 24.1938Q18.8098 24.2135 18.7453 24.2289Q18.6809 24.2443 18.6155 24.2554Q18.5502 24.2665 18.4842 24.2732Q18.4183 24.2799 18.3521 24.2823Q18.2858 24.2847 18.2196 24.2826Q18.1533 24.2806 18.0873 24.2742Q18.0214 24.2678 17.956 24.257Q17.8906 24.2462 17.826 24.2311Q17.7615 24.216 17.6981 24.1967Q17.6347 24.1774 17.5727 24.1539Q17.5107 24.1304 17.4504 24.1029Q17.3901 24.0754 17.3318 24.0439Q17.2735 24.0124 17.2173 23.9771Q17.1612 23.9419 17.1075 23.903L2.61331 13.3947Q2.5619 13.3574 2.51295 13.3169Q2.464 13.2764 2.41772 13.233Q2.37144 13.1895 2.32802 13.1431Q2.28459 13.0968 2.24419 13.0478Q2.20379 12.9988 2.16659 12.9473Q2.12939 12.8958 2.09552 12.8421Q2.06166 12.7884 2.03128 12.7326Q2.00089 12.6768 1.97411 12.6192Q1.94733 12.5617 1.92425 12.5025Q1.90118 12.4433 1.88191 12.3828Q1.86264 12.3223 1.84725 12.2607Q1.83186 12.1991 1.82041 12.1366Q1.80896 12.0741 1.8015 12.0111Q1.79404 11.948 1.7906 11.8846Q1.78716 11.8212 1.78775 11.7576Q1.78834 11.6941 1.79296 11.6308Q1.79758 11.5675 1.80621 11.5045Q1.81485 11.4416 1.82745 11.3794Q1.84006 11.3171 1.8566 11.2558Q1.87313 11.1945 1.89353 11.1343Q1.91392 11.0742 1.93809 11.0155Q1.96226 10.9567 1.99011 10.8997Q2.01796 10.8426 2.04937 10.7874Q2.08079 10.7322 2.11565 10.6791Q2.1505 10.626 2.18866 10.5752Q2.22681 10.5245 2.26812 10.4762Q2.30942 10.428 2.3537 10.3825Q2.39798 10.3369 2.44506 10.2943Q2.49214 10.2517 2.54183 10.2121Q2.59153 10.1726 2.64363 10.1363Q2.69573 10.1 2.75003 10.067Q2.80433 10.0341 2.86062 10.0047L18.8043 1.67049Q18.8632 1.63967 18.9241 1.61284Q18.985 1.58601 19.0475 1.56328Q19.1101 1.54056 19.174 1.52204Q19.2379 1.50353 19.3028 1.4893Q19.3678 1.47507 19.4336 1.4652Q19.4994 1.45532 19.5657 1.44984Q19.632 1.44437 19.6986 1.44331Q19.7651 1.44225 19.8315 1.44562Q19.898 1.44899 19.964 1.45677Q20.0301 1.46454 20.0955 1.4767Q20.1609 1.48885 20.2254 1.50533Q20.2898 1.52181 20.3531 1.54253Q20.4163 1.56326 20.478 1.58814Q20.5397 1.61302 20.5996 1.64195Q20.6595 1.67089 20.7174 1.70374Q20.7752 1.73659 20.8308 1.77321Q20.8863 1.80983 20.9393 1.85007Q20.9923 1.89031 21.0425 1.93398Q21.0926 1.97765 21.1398 2.02456Q21.187 2.07147 21.231 2.12141Q21.2749 2.17135 21.3154 2.22411Q21.356 2.27686 21.3929 2.3322Q21.4299 2.38753 21.463 2.4452Q21.4962 2.50286 21.5255 2.56261Q21.5547 2.62235 21.58 2.68391Q21.6052 2.74547 21.6263 2.80857Q21.6474 2.87168 21.6642 2.93604Q21.6811 3.0004 21.6936 3.06574Q21.7061 3.13108 21.7143 3.19711Q21.7224 3.26314 21.7262 3.32956Q21.7299 3.39599 21.7292 3.46251Q21.7285 3.52904 21.7234 3.59537L21.7234 3.59537Z" transform="translate(10 3)" id="Rectangle-Copy-4" fill="#F0F1FF" stroke="none" />
    <path d="M21.7234 3.59537L20.274 22.4379Q20.2689 22.504 20.2595 22.5696Q20.25 22.6352 20.2362 22.7Q20.2225 22.7648 20.2044 22.8286Q20.1864 22.8924 20.1642 22.9549Q20.1419 23.0173 20.1156 23.0781Q20.0893 23.139 20.059 23.1979Q20.0287 23.2569 19.9946 23.3137Q19.9605 23.3705 19.9227 23.425Q19.8849 23.4794 19.8435 23.5312Q19.8022 23.583 19.7575 23.632Q19.7128 23.681 19.665 23.7269Q19.6172 23.7728 19.5664 23.8154Q19.5157 23.858 19.4622 23.8972Q19.4087 23.9363 19.3528 23.9719Q19.2968 24.0074 19.2387 24.0392Q19.1805 24.0709 19.1203 24.0988Q19.0602 24.1266 18.9983 24.1504Q18.9364 24.1742 18.8731 24.1938Q18.8098 24.2135 18.7453 24.2289Q18.6809 24.2443 18.6155 24.2554Q18.5502 24.2665 18.4842 24.2732Q18.4183 24.2799 18.3521 24.2823Q18.2858 24.2847 18.2196 24.2826Q18.1533 24.2806 18.0873 24.2742Q18.0214 24.2678 17.956 24.257Q17.8906 24.2462 17.826 24.2311Q17.7615 24.216 17.6981 24.1967Q17.6347 24.1774 17.5727 24.1539Q17.5107 24.1304 17.4504 24.1029Q17.3901 24.0754 17.3318 24.0439Q17.2735 24.0124 17.2173 23.9771Q17.1612 23.9419 17.1075 23.903L2.61331 13.3947Q2.5619 13.3574 2.51295 13.3169Q2.464 13.2764 2.41772 13.233Q2.37144 13.1895 2.32802 13.1431Q2.28459 13.0968 2.24419 13.0478Q2.20379 12.9988 2.16659 12.9473Q2.12939 12.8958 2.09552 12.8421Q2.06166 12.7884 2.03128 12.7326Q2.00089 12.6768 1.97411 12.6192Q1.94733 12.5617 1.92425 12.5025Q1.90118 12.4433 1.88191 12.3828Q1.86264 12.3223 1.84725 12.2607Q1.83186 12.1991 1.82041 12.1366Q1.80896 12.0741 1.8015 12.0111Q1.79404 11.948 1.7906 11.8846Q1.78716 11.8212 1.78775 11.7576Q1.78834 11.6941 1.79296 11.6308Q1.79758 11.5675 1.80621 11.5045Q1.81485 11.4416 1.82745 11.3794Q1.84006 11.3171 1.8566 11.2558Q1.87313 11.1945 1.89353 11.1343Q1.91392 11.0742 1.93809 11.0155Q1.96226 10.9567 1.99011 10.8997Q2.01796 10.8426 2.04937 10.7874Q2.08079 10.7322 2.11565 10.6791Q2.1505 10.626 2.18866 10.5752Q2.22681 10.5245 2.26812 10.4762Q2.30942 10.428 2.3537 10.3825Q2.39798 10.3369 2.44506 10.2943Q2.49214 10.2517 2.54183 10.2121Q2.59153 10.1726 2.64363 10.1363Q2.69573 10.1 2.75003 10.067Q2.80433 10.0341 2.86062 10.0047L18.8043 1.67049Q18.8632 1.63967 18.9241 1.61284Q18.985 1.58601 19.0475 1.56328Q19.1101 1.54056 19.174 1.52204Q19.2379 1.50353 19.3028 1.4893Q19.3678 1.47507 19.4336 1.4652Q19.4994 1.45532 19.5657 1.44984Q19.632 1.44437 19.6986 1.44331Q19.7651 1.44225 19.8315 1.44562Q19.898 1.44899 19.964 1.45677Q20.0301 1.46454 20.0955 1.4767Q20.1609 1.48885 20.2254 1.50533Q20.2898 1.52181 20.3531 1.54253Q20.4163 1.56326 20.478 1.58814Q20.5397 1.61302 20.5996 1.64195Q20.6595 1.67089 20.7174 1.70374Q20.7752 1.73659 20.8308 1.77321Q20.8863 1.80983 20.9393 1.85007Q20.9923 1.89031 21.0425 1.93398Q21.0926 1.97765 21.1398 2.02456Q21.187 2.07147 21.231 2.12141Q21.2749 2.17135 21.3154 2.22411Q21.356 2.27686 21.3929 2.3322Q21.4299 2.38753 21.463 2.4452Q21.4962 2.50286 21.5255 2.56261Q21.5547 2.62235 21.58 2.68391Q21.6052 2.74547 21.6263 2.80857Q21.6474 2.87168 21.6642 2.93604Q21.6811 3.0004 21.6936 3.06574Q21.7061 3.13108 21.7143 3.19711Q21.7224 3.26314 21.7262 3.32956Q21.7299 3.39599 21.7292 3.46251Q21.7285 3.52904 21.7234 3.59537L21.7234 3.59537Z" id="Rectangle-Copy" fill="none" stroke="#252A7C" stroke-width="3" />
  </g>
  <g id="Group" transform="translate(133 135.0056)">
    <path d="M1.999 0L16.001 0Q16.0992 0 16.1969 0.00962573Q16.2947 0.0192515 16.391 0.0384102Q16.4873 0.057569 16.5813 0.0860763Q16.6753 0.114584 16.766 0.152165Q16.8567 0.189746 16.9433 0.236039Q17.0299 0.282333 17.1116 0.336892Q17.1932 0.391452 17.2691 0.453752Q17.3451 0.516052 17.4145 0.585494Q17.4839 0.654935 17.5462 0.730848Q17.6085 0.806761 17.6631 0.888415Q17.7177 0.970069 17.764 1.05668Q17.8103 1.14329 17.8478 1.23402Q17.8854 1.32474 17.9139 1.41872Q17.9424 1.5127 17.9616 1.60901Q17.9807 1.70533 17.9904 1.80306Q18 1.9008 18 1.999L18 16.001Q18 16.0992 17.9904 16.1969Q17.9807 16.2947 17.9616 16.391Q17.9424 16.4873 17.9139 16.5813Q17.8854 16.6753 17.8478 16.766Q17.8103 16.8567 17.764 16.9433Q17.7177 17.0299 17.6631 17.1116Q17.6085 17.1932 17.5462 17.2691Q17.4839 17.3451 17.4145 17.4145Q17.3451 17.4839 17.2691 17.5462Q17.1932 17.6085 17.1116 17.6631Q17.0299 17.7177 16.9433 17.764Q16.8567 17.8103 16.766 17.8478Q16.6753 17.8854 16.5813 17.9139Q16.4873 17.9424 16.391 17.9616Q16.2947 17.9807 16.1969 17.9904Q16.0992 18 16.001 18L1.999 18Q1.9008 18 1.80306 17.9904Q1.70533 17.9807 1.60901 17.9616Q1.5127 17.9424 1.41872 17.9139Q1.32474 17.8854 1.23402 17.8478Q1.14329 17.8103 1.05668 17.764Q0.970069 17.7177 0.888415 17.6631Q0.806761 17.6085 0.730848 17.5462Q0.654935 17.4839 0.585494 17.4145Q0.516052 17.3451 0.453752 17.2691Q0.391452 17.1932 0.336892 17.1116Q0.282333 17.0299 0.236039 16.9433Q0.189746 16.8567 0.152165 16.766Q0.114584 16.6753 0.0860763 16.5813Q0.057569 16.4873 0.0384102 16.391Q0.0192515 16.2947 0.00962573 16.1969Q0 16.0992 0 16.001L0 1.999Q0 1.9008 0.00962573 1.80306Q0.0192515 1.70533 0.0384102 1.60901Q0.057569 1.5127 0.0860763 1.41872Q0.114584 1.32474 0.152165 1.23402Q0.189746 1.14329 0.236039 1.05668Q0.282333 0.970069 0.336892 0.888415Q0.391452 0.806761 0.453752 0.730848Q0.516052 0.654935 0.585494 0.585494Q0.654935 0.516052 0.730848 0.453752Q0.806761 0.391452 0.888415 0.336892Q0.970069 0.282333 1.05668 0.236039Q1.14329 0.189746 1.23402 0.152165Q1.32474 0.114584 1.41872 0.0860763Q1.5127 0.057569 1.60901 0.0384102Q1.70533 0.0192515 1.80306 0.00962573Q1.9008 0 1.999 0Z" transform="translate(6 6)" id="Rectangle-Copy-3" fill="#F0F1FF" stroke="none" />
    <path d="M1.999 0L16.001 0Q16.0992 0 16.1969 0.00962573Q16.2947 0.0192515 16.391 0.0384102Q16.4873 0.057569 16.5813 0.0860763Q16.6753 0.114584 16.766 0.152165Q16.8567 0.189746 16.9433 0.236039Q17.0299 0.282333 17.1116 0.336892Q17.1932 0.391452 17.2691 0.453752Q17.3451 0.516052 17.4145 0.585494Q17.4839 0.654935 17.5462 0.730848Q17.6085 0.806761 17.6631 0.888415Q17.7177 0.970069 17.764 1.05668Q17.8103 1.14329 17.8478 1.23402Q17.8854 1.32474 17.9139 1.41872Q17.9424 1.5127 17.9616 1.60901Q17.9807 1.70533 17.9904 1.80306Q18 1.9008 18 1.999L18 16.001Q18 16.0992 17.9904 16.1969Q17.9807 16.2947 17.9616 16.391Q17.9424 16.4873 17.9139 16.5813Q17.8854 16.6753 17.8478 16.766Q17.8103 16.8567 17.764 16.9433Q17.7177 17.0299 17.6631 17.1116Q17.6085 17.1932 17.5462 17.2691Q17.4839 17.3451 17.4145 17.4145Q17.3451 17.4839 17.2691 17.5462Q17.1932 17.6085 17.1116 17.6631Q17.0299 17.7177 16.9433 17.764Q16.8567 17.8103 16.766 17.8478Q16.6753 17.8854 16.5813 17.9139Q16.4873 17.9424 16.391 17.9616Q16.2947 17.9807 16.1969 17.9904Q16.0992 18 16.001 18L1.999 18Q1.9008 18 1.80306 17.9904Q1.70533 17.9807 1.60901 17.9616Q1.5127 17.9424 1.41872 17.9139Q1.32474 17.8854 1.23402 17.8478Q1.14329 17.8103 1.05668 17.764Q0.970069 17.7177 0.888415 17.6631Q0.806761 17.6085 0.730848 17.5462Q0.654935 17.4839 0.585494 17.4145Q0.516052 17.3451 0.453752 17.2691Q0.391452 17.1932 0.336892 17.1116Q0.282333 17.0299 0.236039 16.9433Q0.189746 16.8567 0.152165 16.766Q0.114584 16.6753 0.0860763 16.5813Q0.057569 16.4873 0.0384102 16.391Q0.0192515 16.2947 0.00962573 16.1969Q0 16.0992 0 16.001L0 1.999Q0 1.9008 0.00962573 1.80306Q0.0192515 1.70533 0.0384102 1.60901Q0.057569 1.5127 0.0860763 1.41872Q0.114584 1.32474 0.152165 1.23402Q0.189746 1.14329 0.236039 1.05668Q0.282333 0.970069 0.336892 0.888415Q0.391452 0.806761 0.453752 0.730848Q0.516052 0.654935 0.585494 0.585494Q0.654935 0.516052 0.730848 0.453752Q0.806761 0.391452 0.888415 0.336892Q0.970069 0.282333 1.05668 0.236039Q1.14329 0.189746 1.23402 0.152165Q1.32474 0.114584 1.41872 0.0860763Q1.5127 0.057569 1.60901 0.0384102Q1.70533 0.0192515 1.80306 0.00962573Q1.9008 0 1.999 0Z" id="Rectangle" fill="none" stroke="#252A7C" stroke-width="3" />
  </g>
  <g id="Group-Copy" transform="matrix(0.3255681 0.9455186 -0.9455186 0.3255681 280.6228 58.55078)">
    <path d="M1.999 0L16.001 0Q16.0992 0 16.1969 0.00962573Q16.2947 0.0192515 16.391 0.0384102Q16.4873 0.057569 16.5813 0.0860763Q16.6753 0.114584 16.766 0.152165Q16.8567 0.189746 16.9433 0.236039Q17.0299 0.282333 17.1116 0.336892Q17.1932 0.391452 17.2691 0.453752Q17.3451 0.516052 17.4145 0.585494Q17.4839 0.654935 17.5462 0.730848Q17.6085 0.806761 17.6631 0.888415Q17.7177 0.970069 17.764 1.05668Q17.8103 1.14329 17.8478 1.23402Q17.8854 1.32474 17.9139 1.41872Q17.9424 1.5127 17.9616 1.60901Q17.9807 1.70533 17.9904 1.80306Q18 1.9008 18 1.999L18 16.001Q18 16.0992 17.9904 16.1969Q17.9807 16.2947 17.9616 16.391Q17.9424 16.4873 17.9139 16.5813Q17.8854 16.6753 17.8478 16.766Q17.8103 16.8567 17.764 16.9433Q17.7177 17.0299 17.6631 17.1116Q17.6085 17.1932 17.5462 17.2691Q17.4839 17.3451 17.4145 17.4145Q17.3451 17.4839 17.2691 17.5462Q17.1932 17.6085 17.1116 17.6631Q17.0299 17.7177 16.9433 17.764Q16.8567 17.8103 16.766 17.8478Q16.6753 17.8854 16.5813 17.9139Q16.4873 17.9424 16.391 17.9616Q16.2947 17.9807 16.1969 17.9904Q16.0992 18 16.001 18L1.999 18Q1.9008 18 1.80306 17.9904Q1.70533 17.9807 1.60901 17.9616Q1.5127 17.9424 1.41872 17.9139Q1.32474 17.8854 1.23402 17.8478Q1.14329 17.8103 1.05668 17.764Q0.970069 17.7177 0.888415 17.6631Q0.806761 17.6085 0.730848 17.5462Q0.654935 17.4839 0.585494 17.4145Q0.516052 17.3451 0.453752 17.2691Q0.391452 17.1932 0.336892 17.1116Q0.282333 17.0299 0.236039 16.9433Q0.189746 16.8567 0.152165 16.766Q0.114584 16.6753 0.0860763 16.5813Q0.057569 16.4873 0.0384102 16.391Q0.0192515 16.2947 0.00962573 16.1969Q0 16.0992 0 16.001L0 1.999Q0 1.9008 0.00962573 1.80306Q0.0192515 1.70533 0.0384102 1.60901Q0.057569 1.5127 0.0860763 1.41872Q0.114584 1.32474 0.152165 1.23402Q0.189746 1.14329 0.236039 1.05668Q0.282333 0.970069 0.336892 0.888415Q0.391452 0.806761 0.453752 0.730848Q0.516052 0.654935 0.585494 0.585494Q0.654935 0.516052 0.730848 0.453752Q0.806761 0.391452 0.888415 0.336892Q0.970069 0.282333 1.05668 0.236039Q1.14329 0.189746 1.23402 0.152165Q1.32474 0.114584 1.41872 0.0860763Q1.5127 0.057569 1.60901 0.0384102Q1.70533 0.0192515 1.80306 0.00962573Q1.9008 0 1.999 0Z" transform="translate(6 6)" id="Rectangle-Copy-3" fill="#F0F1FF" stroke="none" />
    <path d="M1.999 0L16.001 0Q16.0992 0 16.1969 0.00962573Q16.2947 0.0192515 16.391 0.0384102Q16.4873 0.057569 16.5813 0.0860763Q16.6753 0.114584 16.766 0.152165Q16.8567 0.189746 16.9433 0.236039Q17.0299 0.282333 17.1116 0.336892Q17.1932 0.391452 17.2691 0.453752Q17.3451 0.516052 17.4145 0.585494Q17.4839 0.654935 17.5462 0.730848Q17.6085 0.806761 17.6631 0.888415Q17.7177 0.970069 17.764 1.05668Q17.8103 1.14329 17.8478 1.23402Q17.8854 1.32474 17.9139 1.41872Q17.9424 1.5127 17.9616 1.60901Q17.9807 1.70533 17.9904 1.80306Q18 1.9008 18 1.999L18 16.001Q18 16.0992 17.9904 16.1969Q17.9807 16.2947 17.9616 16.391Q17.9424 16.4873 17.9139 16.5813Q17.8854 16.6753 17.8478 16.766Q17.8103 16.8567 17.764 16.9433Q17.7177 17.0299 17.6631 17.1116Q17.6085 17.1932 17.5462 17.2691Q17.4839 17.3451 17.4145 17.4145Q17.3451 17.4839 17.2691 17.5462Q17.1932 17.6085 17.1116 17.6631Q17.0299 17.7177 16.9433 17.764Q16.8567 17.8103 16.766 17.8478Q16.6753 17.8854 16.5813 17.9139Q16.4873 17.9424 16.391 17.9616Q16.2947 17.9807 16.1969 17.9904Q16.0992 18 16.001 18L1.999 18Q1.9008 18 1.80306 17.9904Q1.70533 17.9807 1.60901 17.9616Q1.5127 17.9424 1.41872 17.9139Q1.32474 17.8854 1.23402 17.8478Q1.14329 17.8103 1.05668 17.764Q0.970069 17.7177 0.888415 17.6631Q0.806761 17.6085 0.730848 17.5462Q0.654935 17.4839 0.585494 17.4145Q0.516052 17.3451 0.453752 17.2691Q0.391452 17.1932 0.336892 17.1116Q0.282333 17.0299 0.236039 16.9433Q0.189746 16.8567 0.152165 16.766Q0.114584 16.6753 0.0860763 16.5813Q0.057569 16.4873 0.0384102 16.391Q0.0192515 16.2947 0.00962573 16.1969Q0 16.0992 0 16.001L0 1.999Q0 1.9008 0.00962573 1.80306Q0.0192515 1.70533 0.0384102 1.60901Q0.057569 1.5127 0.0860763 1.41872Q0.114584 1.32474 0.152165 1.23402Q0.189746 1.14329 0.236039 1.05668Q0.282333 0.970069 0.336892 0.888415Q0.391452 0.806761 0.453752 0.730848Q0.516052 0.654935 0.585494 0.585494Q0.654935 0.516052 0.730848 0.453752Q0.806761 0.391452 0.888415 0.336892Q0.970069 0.282333 1.05668 0.236039Q1.14329 0.189746 1.23402 0.152165Q1.32474 0.114584 1.41872 0.0860763Q1.5127 0.057569 1.60901 0.0384102Q1.70533 0.0192515 1.80306 0.00962573Q1.9008 0 1.999 0Z" id="Rectangle" fill="none" stroke="#252A7C" stroke-width="3" />
  </g>
  <g id="Group-Copy-2" transform="matrix(0.9975641 0.06975647 -0.06975647 0.9975641 366.0498 88.99585)">
    <path d="M1.999 0L16.001 0Q16.0992 0 16.1969 0.00962573Q16.2947 0.0192515 16.391 0.0384102Q16.4873 0.057569 16.5813 0.0860763Q16.6753 0.114584 16.766 0.152165Q16.8567 0.189746 16.9433 0.236039Q17.0299 0.282333 17.1116 0.336892Q17.1932 0.391452 17.2691 0.453752Q17.3451 0.516052 17.4145 0.585494Q17.4839 0.654935 17.5462 0.730848Q17.6085 0.806761 17.6631 0.888415Q17.7177 0.970069 17.764 1.05668Q17.8103 1.14329 17.8478 1.23402Q17.8854 1.32474 17.9139 1.41872Q17.9424 1.5127 17.9616 1.60901Q17.9807 1.70533 17.9904 1.80306Q18 1.9008 18 1.999L18 16.001Q18 16.0992 17.9904 16.1969Q17.9807 16.2947 17.9616 16.391Q17.9424 16.4873 17.9139 16.5813Q17.8854 16.6753 17.8478 16.766Q17.8103 16.8567 17.764 16.9433Q17.7177 17.0299 17.6631 17.1116Q17.6085 17.1932 17.5462 17.2691Q17.4839 17.3451 17.4145 17.4145Q17.3451 17.4839 17.2691 17.5462Q17.1932 17.6085 17.1116 17.6631Q17.0299 17.7177 16.9433 17.764Q16.8567 17.8103 16.766 17.8478Q16.6753 17.8854 16.5813 17.9139Q16.4873 17.9424 16.391 17.9616Q16.2947 17.9807 16.1969 17.9904Q16.0992 18 16.001 18L1.999 18Q1.9008 18 1.80306 17.9904Q1.70533 17.9807 1.60901 17.9616Q1.5127 17.9424 1.41872 17.9139Q1.32474 17.8854 1.23402 17.8478Q1.14329 17.8103 1.05668 17.764Q0.970069 17.7177 0.888415 17.6631Q0.806761 17.6085 0.730848 17.5462Q0.654935 17.4839 0.585494 17.4145Q0.516052 17.3451 0.453752 17.2691Q0.391452 17.1932 0.336892 17.1116Q0.282333 17.0299 0.236039 16.9433Q0.189746 16.8567 0.152165 16.766Q0.114584 16.6753 0.0860763 16.5813Q0.057569 16.4873 0.0384102 16.391Q0.0192515 16.2947 0.00962573 16.1969Q0 16.0992 0 16.001L0 1.999Q0 1.9008 0.00962573 1.80306Q0.0192515 1.70533 0.0384102 1.60901Q0.057569 1.5127 0.0860763 1.41872Q0.114584 1.32474 0.152165 1.23402Q0.189746 1.14329 0.236039 1.05668Q0.282333 0.970069 0.336892 0.888415Q0.391452 0.806761 0.453752 0.730848Q0.516052 0.654935 0.585494 0.585494Q0.654935 0.516052 0.730848 0.453752Q0.806761 0.391452 0.888415 0.336892Q0.970069 0.282333 1.05668 0.236039Q1.14329 0.189746 1.23402 0.152165Q1.32474 0.114584 1.41872 0.0860763Q1.5127 0.057569 1.60901 0.0384102Q1.70533 0.0192515 1.80306 0.00962573Q1.9008 0 1.999 0Z" transform="translate(6 6)" id="Rectangle-Copy-3" fill="#F0F1FF" stroke="none" />
    <path d="M1.999 0L16.001 0Q16.0992 0 16.1969 0.00962573Q16.2947 0.0192515 16.391 0.0384102Q16.4873 0.057569 16.5813 0.0860763Q16.6753 0.114584 16.766 0.152165Q16.8567 0.189746 16.9433 0.236039Q17.0299 0.282333 17.1116 0.336892Q17.1932 0.391452 17.2691 0.453752Q17.3451 0.516052 17.4145 0.585494Q17.4839 0.654935 17.5462 0.730848Q17.6085 0.806761 17.6631 0.888415Q17.7177 0.970069 17.764 1.05668Q17.8103 1.14329 17.8478 1.23402Q17.8854 1.32474 17.9139 1.41872Q17.9424 1.5127 17.9616 1.60901Q17.9807 1.70533 17.9904 1.80306Q18 1.9008 18 1.999L18 16.001Q18 16.0992 17.9904 16.1969Q17.9807 16.2947 17.9616 16.391Q17.9424 16.4873 17.9139 16.5813Q17.8854 16.6753 17.8478 16.766Q17.8103 16.8567 17.764 16.9433Q17.7177 17.0299 17.6631 17.1116Q17.6085 17.1932 17.5462 17.2691Q17.4839 17.3451 17.4145 17.4145Q17.3451 17.4839 17.2691 17.5462Q17.1932 17.6085 17.1116 17.6631Q17.0299 17.7177 16.9433 17.764Q16.8567 17.8103 16.766 17.8478Q16.6753 17.8854 16.5813 17.9139Q16.4873 17.9424 16.391 17.9616Q16.2947 17.9807 16.1969 17.9904Q16.0992 18 16.001 18L1.999 18Q1.9008 18 1.80306 17.9904Q1.70533 17.9807 1.60901 17.9616Q1.5127 17.9424 1.41872 17.9139Q1.32474 17.8854 1.23402 17.8478Q1.14329 17.8103 1.05668 17.764Q0.970069 17.7177 0.888415 17.6631Q0.806761 17.6085 0.730848 17.5462Q0.654935 17.4839 0.585494 17.4145Q0.516052 17.3451 0.453752 17.2691Q0.391452 17.1932 0.336892 17.1116Q0.282333 17.0299 0.236039 16.9433Q0.189746 16.8567 0.152165 16.766Q0.114584 16.6753 0.0860763 16.5813Q0.057569 16.4873 0.0384102 16.391Q0.0192515 16.2947 0.00962573 16.1969Q0 16.0992 0 16.001L0 1.999Q0 1.9008 0.00962573 1.80306Q0.0192515 1.70533 0.0384102 1.60901Q0.057569 1.5127 0.0860763 1.41872Q0.114584 1.32474 0.152165 1.23402Q0.189746 1.14329 0.236039 1.05668Q0.282333 0.970069 0.336892 0.888415Q0.391452 0.806761 0.453752 0.730848Q0.516052 0.654935 0.585494 0.585494Q0.654935 0.516052 0.730848 0.453752Q0.806761 0.391452 0.888415 0.336892Q0.970069 0.282333 1.05668 0.236039Q1.14329 0.189746 1.23402 0.152165Q1.32474 0.114584 1.41872 0.0860763Q1.5127 0.057569 1.60901 0.0384102Q1.70533 0.0192515 1.80306 0.00962573Q1.9008 0 1.999 0Z" id="Rectangle" fill="none" stroke="#252A7C" stroke-width="3" />
  </g>
  <path d="M4 8C6.20914 8 8 6.20914 8 4C8 1.79086 6.20914 0 4 0C1.79086 0 0 1.79086 0 4C0 6.20914 1.79086 8 4 8Z" transform="translate(50 124.0056)" id="Oval" fill="none" stroke="#252A7C" stroke-width="3" />
  <path d="M4 8C6.20914 8 8 6.20914 8 4C8 1.79086 6.20914 0 4 0C1.79086 0 0 1.79086 0 4C0 6.20914 1.79086 8 4 8Z" transform="translate(285 95.00562)" id="Oval-Copy" fill="none" stroke="#252A7C" stroke-width="3" />
  <path d="M4 8C6.20914 8 8 6.20914 8 4C8 1.79086 6.20914 0 4 0C1.79086 0 0 1.79086 0 4C0 6.20914 1.79086 8 4 8Z" transform="translate(60 37.00562)" id="Oval-Copy-3" fill="none" stroke="#252A7C" stroke-width="3" />
  <path d="M4 8C6.20914 8 8 6.20914 8 4C8 1.79086 6.20914 0 4 0C1.79086 0 0 1.79086 0 4C0 6.20914 1.79086 8 4 8Z" transform="translate(350 164.0056)" id="Oval-Copy-2" fill="none" stroke="#252A7C" stroke-width="3" />
  <path d="M4 8C6.20914 8 8 6.20914 8 4C8 1.79086 6.20914 0 4 0C1.79086 0 0 1.79086 0 4C0 6.20914 1.79086 8 4 8Z" transform="translate(357 59.00562)" id="Oval-Copy-5" fill="none" stroke="#252A7C" stroke-width="3" />
  <path d="M4 8C6.20914 8 8 6.20914 8 4C8 1.79086 6.20914 0 4 0C1.79086 0 0 1.79086 0 4C0 6.20914 1.79086 8 4 8Z" transform="translate(28 72.00562)" id="Oval-Copy-4" fill="none" stroke="#252A7C" stroke-width="3" />
  <path d="M4 8C6.20914 8 8 6.20914 8 4C8 1.79086 6.20914 0 4 0C1.79086 0 0 1.79086 0 4C0 6.20914 1.79086 8 4 8Z" transform="translate(201 49.00562)" id="Oval-Copy-6" fill="none" stroke="#252A7C" stroke-width="3" />
  <path d="M9 0L0 32" transform="translate(10 55.00562)" id="Path-3" fill="none" stroke="#252A7C" stroke-width="3" stroke-linecap="round" stroke-linejoin="round" />
  <path d="M31 0L0 12" transform="translate(72 71.00562)" id="Path-3-Copy" fill="none" stroke="#252A7C" stroke-width="3" stroke-linecap="round" stroke-linejoin="round" />
  <path d="M31 0L0 12" transform="translate(317 37.00562)" id="Path-3-Copy-5" fill="none" stroke="#252A7C" stroke-width="3" stroke-linecap="round" stroke-linejoin="round" />
  <path d="M33 5L0 0" transform="translate(179 100.0056)" id="Path-3-Copy-2" fill="none" stroke="#252A7C" stroke-width="3" stroke-linecap="round" stroke-linejoin="round" />
  <path d="M0 0L25 22" transform="translate(307 106.0056)" id="Path-3-Copy-3" fill="none" stroke="#252A7C" stroke-width="3" stroke-linecap="round" stroke-linejoin="round" />
  <path d="M31 0L0 12" transform="translate(219 163.0056)" id="Path-3-Copy-4" fill="none" stroke="#252A7C" stroke-width="3" stroke-linecap="round" stroke-linejoin="round" />
  <path d="M-7.09155e-15 0C-7.09155e-15 0 14 0 14 13C14 25.9999 11.2049 30.2844 17 37.9999C22.7951 45.7154 33.0719 48.4333 33.0719 48.4333" transform="matrix(0.9205049 -0.3907311 0.3907311 0.9205049 162.0356 123.1899)" id="Path-4-Copy-2" fill="none" stroke="#252A7C" stroke-width="3" stroke-linecap="round" stroke-linejoin="round" />
  <path d="M-7.09155e-15 0C-7.09155e-15 0 14 0 14 13C14 25.9999 11.2049 30.2844 17 37.9999C22.7951 45.7154 33.0719 48.4333 33.0719 48.4333" transform="matrix(0.06975651 -0.9975641 0.9975641 0.06975651 306.4082 160.8269)" id="Path-4-Copy-4" fill="none" stroke="#252A7C" stroke-width="3" stroke-linecap="round" stroke-linejoin="round" />
  <path d="M-7.07613e-15 0C-7.07613e-15 0 13.9696 0 13.9696 12.8837C13.9696 25.7673 11.1805 30.0135 16.963 37.6599C22.7455 45.3064 33 48 33 48" transform="translate(39 62.00562)" id="Path-4-Copy-3" fill="none" stroke="#252A7C" stroke-width="3" stroke-linecap="round" stroke-linejoin="round" />
  <path d="M-7.09155e-15 0C-7.09155e-15 0 14 0 14 13C14 25.9999 11.2049 30.2844 17 37.9999C22.7951 45.7154 33.0719 48.4333 33.0719 48.4333" transform="matrix(0.8987941 -0.4383712 0.4383712 0.8987941 67.24097 16.50342)" id="Path-4-Copy-5" fill="none" stroke="#252A7C" stroke-width="3" stroke-linecap="round" stroke-linejoin="round" />
  <path d="M-7.09155e-15 0C-7.09155e-15 0 14 0 14 13C14 26 14 37 18 42C22 47 34 51 34 51" transform="matrix(0.8660254 -0.5 0.5 0.8660254 202.7109 68.71997)" id="Path-4-Copy" fill="none" stroke="#252A7C" stroke-width="3" stroke-linecap="round" stroke-linejoin="round" />
  <path d="M0 21C0 21 22 11.9492 21 4.90973C20 -2.12976 11 -1.12412 11 4.90973C11 10.9436 13 16.9774 43 16.9774" transform="translate(29 148.0056)" id="Path-5" fill="none" stroke="#252A7C" stroke-width="3" stroke-linecap="round" stroke-linejoin="round" />
  <path d="M0 20.8821C0 20.8821 22 11.8821 21 4.88216C20 -2.1178 11 -1.1178 11 4.88216C11 10.8821 13 16.8821 43 16.8821" transform="matrix(-0.1391731 0.9902681 -0.9902681 -0.1391731 144.0151 63.40723)" id="Path-5-Copy-2" fill="none" stroke="#252A7C" stroke-width="3" stroke-linecap="round" stroke-linejoin="round" />
  <path d="M0 20.8821C0 20.8821 22 11.8821 21 4.88216C20 -2.1178 11 -1.1178 11 4.88216C11 10.8821 13 16.8821 43 16.8821" transform="matrix(0.2419219 -0.9702957 0.9702957 0.2419219 314.3511 99.58032)" id="Path-5-Copy" fill="none" stroke="#252A7C" stroke-width="3" stroke-linecap="round" stroke-linejoin="round" />
  <path d="M0 20.8821C0 20.8821 22 11.8821 21 4.88216C20 -2.1178 11 -1.1178 11 4.88216C11 10.8821 13 16.8821 43 16.8821" transform="matrix(-0.7071068 -0.7071068 0.7071068 -0.7071068 244.5032 59.83057)" id="Path-5-Copy-3" fill="none" stroke="#252A7C" stroke-width="3" stroke-linecap="round" stroke-linejoin="round" />
</svg>