<?xml version="1.0" encoding="utf-8"?>
<svg width="82px" height="83px" viewBox="0 0 82 83" version="1.1" xmlns:xlink="http://www.w3.org/1999/xlink" xmlns="http://www.w3.org/2000/svg">
  <desc>Created with Lunacy</desc>
  <g id="Group-7" transform="translate(1.75 1.75)">
    <g id="noun_Information_2651387">
      <g id="Group-5">
        <g id="Group-6" transform="matrix(-1 8.742278E-08 -8.742278E-08 -1 38.93895 45.5695)">
          <path d="M2.45852 19.611C3.76973 19.611 4.91704 18.7096 4.91704 17.6442L4.91704 1.96681C4.91704 0.901456 3.85168 -1.01243e-13 2.45852 -1.01243e-13C1.14731 -1.01243e-13 0 0.901456 0 1.96681L0 17.6442C0.0819506 18.7096 1.14731 19.611 2.45852 19.611Z" transform="translate(0.4917035 2.766779E-12)" id="Path" fill="#1D206A" stroke="none" />
          <path d="M2.95022 5.90044C4.58923 5.90044 5.90044 4.58923 5.90044 2.95022C5.90044 1.31121 4.58923 0 2.95022 0C1.31121 0 0 1.31121 0 2.95022C0.0819506 4.67118 1.39316 5.90044 2.95022 5.90044Z" transform="translate(0 24.44611)" id="Path" fill="#1D206A" stroke="none" />
        </g>
        <path d="M36.0583 0C44.1714 0.0819506 51.7108 3.27802 57.4474 8.93262C63.102 14.5872 66.2161 22.2086 66.298 30.2398C66.298 46.8757 52.7762 60.3976 36.1402 60.3976L0 60.3156L12.3745 49.1704L12.1287 48.8426C8.03116 43.5977 5.73654 36.9597 5.73654 30.1578C5.73654 13.5218 19.3403 0 36.0583 0ZM10.2438 56.5459L36.0583 56.6279C50.5635 56.6279 62.3644 44.827 62.2825 30.4037C62.2825 23.4379 59.5781 16.7999 54.661 11.8009C49.826 6.8019 43.188 4.01558 36.0583 4.01558C21.553 4.01558 9.75212 15.7345 9.75212 30.1578C9.75212 36.7958 12.2106 43.188 16.636 48.023L18.0291 49.4982L10.2438 56.5459Z" id="Shape" fill="#1D206A" fill-rule="evenodd" stroke="none" />
      </g>
    </g>
    <path d="M38.5917 32.3298C42.4725 28.1004 44.844 22.509 44.7722 16.4158C44.7722 10.0358 42.185 4.22939 38.0168 0C36.2202 15.0538 23.2125 26.6667 7.54587 26.595L0 26.595C3.80887 34.552 11.9297 40 21.344 40L47 39.8566L38.5917 32.3298Z" transform="translate(31 39)" id="Path" fill="none" stroke="#1D206A" stroke-width="3.5" />
  </g>
</svg>