<?xml version="1.0" encoding="utf-8"?>
<svg width="69px" height="60px" viewBox="0 0 69 60" version="1.1" xmlns:xlink="http://www.w3.org/1999/xlink" xmlns="http://www.w3.org/2000/svg">
  <desc>Created with Lunacy</desc>
  <path d="M8.73184 -0.331807L60.2682 -0.331807C65.083 -0.331807 69 3.58526 69 8.40017L69 50.9362C69 55.7511 65.083 59.6682 60.2682 59.6682L8.73184 59.6682C3.91803 59.6682 0 55.7511 0 50.9362L0 8.40017C0 3.58526 3.91803 -0.331807 8.73184 -0.331807ZM66 51.0009C66 54.1262 63.4581 56.6682 60.3353 56.6682L8.66473 56.6682C5.54192 56.6682 3 54.1262 3 51.0009L3 8.33548C3 5.21023 5.54192 2.66819 8.66473 2.66819L60.3353 2.66819C63.4581 2.66819 66 5.21023 66 8.33548L66 51.0009ZM10.8279 28.8884C14.3058 30.7329 18.0635 31.6682 21.7477 31.6682C24.3005 31.6682 26.8191 31.2193 29.1833 30.3111C33.3057 28.7284 36.5029 25.7834 39.8887 22.667C44.8472 18.0999 49.9756 13.3769 58.5529 12.7815C59.4097 12.7222 60.0562 11.9782 59.9961 11.1188C59.9371 10.2605 59.1963 9.61825 58.3385 9.67125C48.6753 10.3415 42.8901 15.6693 37.7856 20.3704C34.6256 23.2801 31.6408 26.0297 28.0717 27.3993C23.1318 29.2968 17.3756 28.8344 12.2804 26.1326C11.522 25.7294 10.5823 26.0204 10.1803 26.7821C9.77939 27.5427 10.0695 28.4863 10.8279 28.8884ZM56.8919 19.2314C56.8919 18.3675 57.5881 17.6682 58.4459 17.6682C59.3038 17.6682 60 18.3675 60 19.2314L60 49.1049C60 49.9679 59.3038 50.6682 58.4459 50.6682L11.554 50.6682C10.6962 50.6682 10 49.9679 10 49.1049L10 35.5621C10 34.6981 10.6962 33.9988 11.554 33.9988C12.4119 33.9988 13.1081 34.6981 13.1081 35.5621L13.1081 47.5417L21.7227 47.5417L21.7227 37.1628C21.7227 36.2999 22.4179 35.5996 23.2768 35.5996C24.1346 35.5996 24.8308 36.2999 24.8308 37.1628L24.8308 47.5417L33.4454 47.5417L33.4454 32.6909C33.4454 31.827 34.1416 31.1277 34.9995 31.1277C35.8573 31.1277 36.5535 31.827 36.5535 32.6909L36.5535 47.5417L45.1681 47.5417L45.1681 22.4861C45.1681 21.6232 45.8644 20.9229 46.7222 20.9229C47.5811 20.9229 48.2762 21.6232 48.2762 22.4861L48.2762 47.5417L56.8919 47.5417L56.8919 19.2314Z" id="Shape" fill="#1D206A" fill-rule="evenodd" stroke="none" />
</svg>