<?xml version="1.0" encoding="utf-8"?>
<svg width="77px" height="60px" viewBox="0 0 77 60" version="1.1" xmlns:xlink="http://www.w3.org/1999/xlink" xmlns="http://www.w3.org/2000/svg">
  <desc>Created with Lunacy</desc>
  <g id="noun_news_750649">
    <path d="M0 18.545L0 49.8954C0.00444016 55.4742 4.53325 59.9955 10.1212 59.9999L68.2959 59.9999C70.6036 60.0063 72.8188 59.0951 74.452 57.4675C76.0853 55.84 77.0022 53.6301 77 51.3263L77 1.60772C77 0.719799 76.279 0 75.3896 0L18.624 0C17.7346 0 17.0136 0.719799 17.0136 1.60772L17.0136 49.8954C16.8866 53.6064 13.8364 56.5492 10.1172 56.5492C6.39789 56.5492 3.34778 53.6064 3.22075 49.8954L3.22075 18.545C3.22075 17.6571 2.49976 16.9373 1.61037 16.9373C0.720989 16.9373 0 17.6571 0 18.545ZM17.5209 56.7845L68.2959 56.7845C69.7438 56.7845 71.1323 56.2103 72.1561 55.1882C73.1799 54.1661 73.7551 52.7798 73.7551 51.3343L73.7551 3.21543L20.2424 3.21543L20.2424 49.8954C20.2452 52.4537 19.2721 54.9169 17.5209 56.7845ZM66.2588 12.4035C66.2588 13.2914 65.5378 14.0112 64.6484 14.0112L29.3813 14.0112C28.4919 14.0112 27.7709 13.2914 27.7709 12.4035C27.7709 11.5156 28.4919 10.7958 29.3813 10.7958L64.6484 10.7958C65.5378 10.7958 66.2588 11.5156 66.2588 12.4035ZM8.51082 49.8713L8.51082 18.8826C8.51082 17.9947 9.23181 17.2749 10.1212 17.2749C11.0106 17.2749 11.7316 17.9947 11.7316 18.8826L11.7316 49.8713C11.7316 50.7592 11.0106 51.479 10.1212 51.479C9.23181 51.479 8.51082 50.7592 8.51082 49.8713ZM39.9936 22.7652L29.3813 22.7652C28.4919 22.7652 27.7709 22.0455 27.7709 21.1575C27.7709 20.2696 28.4919 19.5498 29.3813 19.5498L39.9936 19.5498C40.883 19.5498 41.604 20.2696 41.604 21.1575C41.604 22.0455 40.883 22.7652 39.9936 22.7652ZM66.2588 38.6012L66.2588 21.1495C66.2544 20.2653 65.5351 19.5498 64.6484 19.5498L48.9715 19.5498C48.0821 19.5498 47.3611 20.2696 47.3611 21.1575L47.3611 38.6012C47.3611 39.4892 48.0821 40.209 48.9715 40.209L64.6484 40.209C65.5378 40.209 66.2588 39.4892 66.2588 38.6012ZM63.0381 22.7572L50.5818 22.7572L50.5818 36.9935L63.0381 36.9935L63.0381 22.7572ZM29.3813 31.4951L39.9936 31.4951C40.883 31.4951 41.604 30.7753 41.604 29.8874C41.604 28.9995 40.883 28.2797 39.9936 28.2797L29.3813 28.2797C28.4919 28.2797 27.7709 28.9995 27.7709 29.8874C27.7709 30.7753 28.4919 31.4951 29.3813 31.4951ZM39.9936 40.225L29.3813 40.225C28.4919 40.225 27.7709 39.5052 27.7709 38.6173C27.7709 37.7294 28.4919 37.0096 29.3813 37.0096L39.9936 37.0096C40.883 37.0096 41.604 37.7294 41.604 38.6173C41.604 39.5052 40.883 40.225 39.9936 40.225ZM64.6484 45.7395L29.3813 45.7395C28.4919 45.7395 27.7709 46.4593 27.7709 47.3472C27.7709 48.2351 28.4919 48.9549 29.3813 48.9549L64.6484 48.9549C65.5378 48.9549 66.2588 48.2351 66.2588 47.3472C66.2588 46.4593 65.5378 45.7395 64.6484 45.7395Z" id="Shape" fill="#252A7C" fill-rule="evenodd" stroke="none" />
  </g>
</svg>