<?xml version="1.0" encoding="utf-8"?>
<svg width="77px" height="81px" viewBox="0 0 77 81" version="1.1" xmlns:xlink="http://www.w3.org/1999/xlink" xmlns="http://www.w3.org/2000/svg">
  <desc>Created with Lunacy</desc>
  <g id="noun_symptom-checker_1630376">
    <g id="Group">
      <path d="M15.1594 7.57969C15.1594 11.7589 11.7598 15.1594 7.57969 15.1594C3.40051 15.1594 0 11.7589 0 7.57969C0 3.40051 3.40051 0 7.57969 0C11.7598 0 15.1594 3.40051 15.1594 7.57969ZM12.2719 7.57969C12.2719 4.99249 10.1669 2.8875 7.57969 2.8875C4.99249 2.8875 2.8875 4.99249 2.8875 7.57969C2.8875 10.1669 4.99249 12.2719 7.57969 12.2719C10.1669 12.2719 12.2719 10.1669 12.2719 7.57969Z" transform="translate(30.92031 0.48125)" id="Shape" fill="#1D206A" fill-rule="evenodd" stroke="none" />
      <path d="M44.6061 18.5522C46.8603 19.4993 48.4465 21.7284 48.4465 24.3224C48.4465 26.9163 46.8603 29.1445 44.6071 30.0926L44.6071 60.7876C44.6071 63.3585 42.5155 65.45 39.9447 65.45C37.3739 65.45 35.2824 63.3585 35.2824 60.7876L35.2824 34.9657L31.8501 34.9657L31.8501 41.8408C32.8376 42.9467 33.444 44.4011 33.444 45.9979C33.444 47.5947 32.8376 49.049 31.8501 50.1549L31.8501 60.7876C31.8501 63.3585 29.7586 65.45 27.1877 65.45C24.6169 65.45 22.5254 63.3585 22.5254 60.7876L22.5254 50.1549C21.5379 49.049 20.9315 47.5947 20.9315 45.9979C20.9315 44.4011 21.5379 42.9467 22.5254 41.8408L22.5254 11.4855C21.5398 12.1323 20.3636 12.5125 19.0998 12.5125C17.5031 12.5125 16.0497 11.9061 14.9428 10.9186L4.66235 10.9186C2.09151 10.9186 0 8.82709 0 6.25625C0 3.68541 2.09151 1.5939 4.66235 1.5939L14.9428 1.5939C16.0497 0.606375 17.5031 0 19.0998 0C20.6966 0 22.15 0.606375 23.2569 1.5939L62.4123 1.5939C64.9832 1.5939 67.0747 3.68541 67.0747 6.25625C67.0747 8.82709 64.9832 10.9186 62.4123 10.9186L44.6061 10.9186L44.6061 18.5522ZM15.7311 6.25625C15.7311 4.39862 17.2422 2.8875 19.0998 2.8875C20.9575 2.8875 22.4686 4.39862 22.4686 6.25625C22.4686 8.11388 20.9575 9.625 19.0998 9.625C17.2422 9.625 15.7311 8.11388 15.7311 6.25625ZM4.66235 4.4814C3.68349 4.4814 2.8875 5.27739 2.8875 6.25625C2.8875 7.23511 3.68349 8.0311 4.66235 8.0311L13.1044 8.0311C12.937 7.46804 12.8436 6.87321 12.8436 6.25625C12.8436 5.63929 12.937 5.04446 13.1044 4.4814L4.66235 4.4814ZM38.1689 60.7877C38.1689 61.7665 38.9649 62.5625 39.9437 62.5625C40.9226 62.5625 41.7186 61.7665 41.7186 60.7877L41.7186 30.5546C38.4884 30.3111 35.934 27.6122 35.934 24.3224C35.934 21.0326 38.4894 18.3327 41.7186 18.0902L41.7186 9.47485C41.7186 8.67694 42.3654 8.0311 43.1623 8.0311L62.4123 8.0311C63.3912 8.0311 64.1872 7.23511 64.1872 6.25625C64.1872 5.27739 63.3912 4.4814 62.4123 4.4814L25.0953 4.4814C25.2627 5.04446 25.3561 5.63929 25.3561 6.25625C25.3561 7.02048 25.2117 7.75101 24.9586 8.42861C25.2367 8.69234 25.4119 9.06194 25.4119 9.47485L25.4119 40.0015C25.975 39.834 26.5698 39.7407 27.1868 39.7407C27.8037 39.7407 28.3986 39.834 28.9616 40.0015L28.9616 33.5219C28.9616 32.725 29.6075 32.0782 30.4054 32.0782L36.7252 32.0782C37.5221 32.0782 38.1689 32.725 38.1689 33.5219L38.1689 60.7877ZM42.1902 27.6911C40.3326 27.6911 38.8215 26.18 38.8215 24.3224C38.8215 22.4648 40.3326 20.9536 42.1902 20.9536C44.0479 20.9536 45.559 22.4648 45.559 24.3224C45.559 26.179 44.0479 27.6911 42.1902 27.6911ZM27.1868 49.3666C29.0444 49.3666 30.5555 47.8555 30.5555 45.9979C30.5555 44.1402 29.0444 42.6291 27.1868 42.6291C25.3292 42.6291 23.818 44.1402 23.818 45.9979C23.818 47.8555 25.3292 49.3666 27.1868 49.3666ZM27.1868 62.5625C26.2079 62.5625 25.4119 61.7665 25.4119 60.7877L25.4119 51.9943C25.975 52.1617 26.5698 52.2551 27.1868 52.2551C27.8037 52.2551 28.3986 52.1617 28.9616 51.9943L28.9616 60.7886C28.9616 61.7665 28.1656 62.5625 27.1868 62.5625Z" transform="translate(4.96265 14.91875)" id="Shape" fill="#1D206A" fill-rule="evenodd" stroke="none" />
      <path d="M1.44327 12.3985C1.81287 12.3985 2.18247 12.258 2.46448 11.976C6.83904 7.60143 12.2897 4.44058 18.2273 2.83705C18.9973 2.62915 19.4526 1.83605 19.2447 1.06702C19.0368 0.297016 18.2427 -0.156321 17.4747 0.0496539C11.0509 1.78504 5.15371 5.20288 0.423019 9.93453C-0.141006 10.4976 -0.141006 11.4129 0.423019 11.976C0.705031 12.258 1.07367 12.3985 1.44327 12.3985Z" transform="translate(11.02399 3.437484)" id="Path" fill="#1D206A" stroke="none" />
      <path d="M1.06672 2.83811C7.00438 4.4426 12.455 7.60152 16.8296 11.9761C17.1116 12.2581 17.4812 12.3986 17.8508 12.3986C18.2204 12.3986 18.59 12.2581 18.872 11.9761C19.436 11.4121 19.436 10.4977 18.872 9.93462C14.1413 5.20394 8.24504 1.7861 1.82132 0.0507105C1.04554 -0.158152 0.258219 0.297111 0.0503187 1.06807C-0.157581 1.83711 0.297681 2.63021 1.06672 2.83811Z" transform="translate(46.68098 3.436427)" id="Path" fill="#1D206A" stroke="none" />
      <path d="M22.4742 0.872528C22.1585 0.140065 21.3105 -0.198735 20.5761 0.119853C19.8436 0.435553 19.5077 1.28544 19.8234 2.0179C21.734 6.44348 22.7032 11.1549 22.7032 16.0204C22.7032 30.3683 14.1408 43.1956 0.891053 48.6992C0.153778 49.0052 -0.194647 49.8503 0.110465 50.5866C0.341465 51.142 0.87854 51.4769 1.44545 51.4769C1.62929 51.4769 1.81794 51.4423 1.99793 51.3672C16.3305 45.4141 25.5907 31.5397 25.5907 16.0204C25.5907 10.7593 24.5416 5.66289 22.4742 0.872528Z" transform="translate(51.16865 24.40465)" id="Path" fill="#1D206A" stroke="none" />
      <path d="M24.4918 48.367C11.3681 42.8172 2.8875 30.0237 2.8875 15.7748C2.8875 10.9989 3.82305 6.36737 5.66624 2.00725C5.97712 1.27286 5.63351 0.425861 4.89912 0.114974C4.16377 -0.196876 3.31677 0.147699 3.00685 0.882086C1.01159 5.60026 0 10.6101 0 15.7748C0 31.1864 9.17166 45.0233 23.3666 51.0274C23.5504 51.1044 23.741 51.1409 23.9287 51.1409C24.4908 51.1409 25.026 50.8098 25.2589 50.2593C25.5688 49.5249 25.2252 48.6789 24.4918 48.367Z" transform="translate(0.240625 24.65015)" id="Path" fill="#1D206A" stroke="none" />
    </g>
  </g>
</svg>