<?xml version="1.0" encoding="utf-8"?>
<svg width="80px" height="70px" viewBox="0 0 80 70" version="1.1" xmlns:xlink="http://www.w3.org/1999/xlink" xmlns="http://www.w3.org/2000/svg">
  <desc>Created with Lunacy</desc>
  <g id="noun_medical-report-person_849282">
    <path d="M63.9169 63.0189C63.0604 65.2786 60.3838 66.9524 57.279 66.9524L10.171 66.9524C6.31675 66.9524 3.2119 64.5254 3.2119 61.5125L3.2119 7.9506C3.2119 4.93774 6.31675 2.51071 10.171 2.51071L57.279 2.51071C61.1333 2.51071 64.2381 4.93774 64.2381 7.9506L64.2381 31.3839C64.7734 31.3839 65.3087 31.3002 65.844 31.3002C66.3794 31.3002 66.9147 31.3002 67.45 31.3839L67.45 7.9506C67.45 3.59869 62.8463 0 57.279 0L10.171 0C4.60373 0 0 3.59869 0 7.9506L0 61.5125C0 65.8644 4.60373 69.4631 10.171 69.4631L57.279 69.4631C62.2039 69.4631 66.3794 66.7013 67.2359 63.1026C66.8076 63.1026 66.2723 63.1863 65.844 63.1863C65.2017 63.1026 64.5593 63.1026 63.9169 63.0189ZM30.3412 15.2231L30.3412 22.7552L22.809 22.7552L22.809 28.6136L30.3412 28.6136L30.3412 36.1457L36.1995 36.1457L36.1995 28.6136L43.7317 28.6136L43.7317 22.7552L36.1995 22.7552L36.1995 15.2231L30.3412 15.2231ZM66.1946 61.0104C73.8105 61.0104 80.0036 54.8173 80.0036 47.2014C80.0036 39.5856 73.8105 33.3925 66.1946 33.3925C58.5788 33.3925 52.3857 39.5856 52.3857 47.2014C52.3857 54.8173 58.5788 61.0104 66.1946 61.0104ZM77.4929 47.2014C77.4929 41.0083 72.3877 35.9032 66.1946 35.9032C60.0015 35.9032 54.8964 41.0083 54.8964 47.2014C54.8964 53.3945 60.0015 58.4996 66.1946 58.4996C72.3877 58.4996 77.4929 53.4782 77.4929 47.2014ZM69.9607 42.5985C69.9607 44.6907 68.2869 46.3645 66.1946 46.3645C64.1024 46.3645 62.4286 44.6907 62.4286 42.5985C62.4286 40.5062 64.1024 38.8324 66.1946 38.8324C68.2869 38.8324 69.9607 40.5062 69.9607 42.5985ZM13.2018 47.5362C13.2018 46.8667 13.7876 46.2808 14.4571 46.2808C15.1267 46.2808 15.7125 46.8667 15.7125 47.5362C15.7125 48.2057 15.1267 48.7915 14.4571 48.7915C13.7876 48.7915 13.2018 48.2057 13.2018 47.5362ZM18.2918 48.7915L48.0295 48.7915C47.9134 48.2894 47.9134 47.7036 47.9134 47.2014C47.9134 46.8667 47.9134 46.6156 48.0295 46.2808L18.2918 46.2808C17.3625 46.2808 16.5494 46.8667 16.5494 47.5362C16.5494 48.2057 17.2464 48.7915 18.2918 48.7915ZM64.1024 46.9504L68.2032 46.9504C70.5466 46.9504 72.4714 48.8752 72.5551 51.2186L72.5551 55.4868L59.8342 55.4868L59.8342 51.2186C59.8342 48.8752 61.759 46.9504 64.1024 46.9504ZM13.2018 53.7293C13.2018 53.0598 13.7876 52.4739 14.4571 52.4739C15.1267 52.4739 15.7125 53.0598 15.7125 53.7293C15.7125 54.3988 15.1267 54.9846 14.4571 54.9846C13.7876 54.9846 13.2018 54.3988 13.2018 53.7293ZM16.5494 53.7293C16.5494 53.0598 17.3448 52.4739 18.2537 52.4739L48.4773 52.4739C48.8182 53.3108 49.3863 54.1477 49.9544 54.9846L18.2537 54.9846C17.3448 54.9846 16.5494 54.3988 16.5494 53.7293ZM14.4571 58.5833C13.7876 58.5833 13.2018 59.1692 13.2018 59.8387C13.2018 60.5082 13.7876 61.094 14.4571 61.094C15.1267 61.094 15.7125 60.5082 15.7125 59.8387C15.7125 59.1692 15.1267 58.5833 14.4571 58.5833ZM50.5922 58.5833C51.8589 58.5833 52.9673 59.1692 52.9673 59.8387C52.9673 60.5082 51.8589 61.094 50.5922 61.094L18.9245 61.094C17.6578 61.094 16.5494 60.5082 16.5494 59.8387C16.5494 59.1692 17.6578 58.5833 18.9245 58.5833L50.5922 58.5833Z" transform="translate(-4.860112E-13 0.4184524)" id="Shape" fill="#1D206A" fill-rule="evenodd" stroke="none" />
  </g>
</svg>