<?xml version="1.0" encoding="utf-8"?>
<svg width="77px" height="85px" viewBox="0 0 77 85" version="1.1" xmlns:xlink="http://www.w3.org/1999/xlink" xmlns="http://www.w3.org/2000/svg">
  <desc>Created with Lunacy</desc>
  <g id="Group">
    <path d="M13.6349 0.114639C12.6577 -0.149827 11.4138 0.0478064 10.5081 0.660756L0 7.76486L1.69373 9.68916L11.9279 2.75252C12.5688 2.31811 13.4696 2.51765 13.9837 3.1917C14.1177 3.36833 14.2217 3.5631 14.3146 3.75978L16.7255 3.23753C16.7255 3.23753 16.5685 2.37921 16.0255 1.70325C15.4654 0.994823 14.82 0.436294 13.6349 0.115212L13.6349 0.114639Z" transform="translate(30.01433 41.47506)" id="Path" fill="#1D206A" stroke="none" />
    <path d="M59.1687 0.0874246C58.1895 -0.116892 57.1247 0.0301396 56.1763 0.600126C53.2332 2.35648 40.8398 9.39166 40.8398 9.39166C40.447 9.61463 40.2029 10.0304 40.1995 10.4823C40.1961 10.9341 40.4338 11.3535 40.8231 11.5825C41.2125 11.8114 41.6943 11.815 42.087 11.5921C42.087 11.5921 54.3985 4.59757 57.4679 2.76598C58.1142 2.38026 59.275 2.71824 59.5729 3.14597C59.8987 3.60902 59.9241 4.02911 59.8094 4.47813C59.6948 4.92782 59.3628 5.34886 59.203 5.46009C53.3377 9.54127 41.5002 17.6113 41.5002 17.6113C38.2226 19.8342 33.1333 22.2081 28.0716 22.8311C22.7631 23.4842 16.7875 20.3235 10.3441 19.866L10.339 19.866C7.84666 19.6894 4.27307 19.7706 1.27814 19.8947C0.811639 19.8888 0.379924 20.1409 0.155551 20.5502C-0.0688227 20.9596 -0.0492548 21.4594 0.206433 21.85C0.46212 22.2405 0.912221 22.458 1.37683 22.4156C4.33559 22.2943 7.90284 22.2266 10.1617 22.387C15.8288 22.788 21.9482 26.1284 28.3772 25.3372C33.9945 24.646 39.3389 22.1318 42.92 19.7031C42.92 19.7031 54.7511 11.6363 60.6425 7.53686C61.4317 6.98788 61.9904 6.1457 62.2545 5.10932C62.5184 4.07437 62.4073 2.78975 61.6383 1.69551C61.0426 0.849602 60.1477 0.2905 59.1685 0.0871382L59.1687 0.0874246Z" transform="translate(5.662517 44.48062)" id="Path" fill="#1D206A" stroke="none" />
    <path d="M13.9414 0.634761L0 9.25873L1.32611 11.4099L15.2675 2.78591C15.9798 2.34481 16.8668 2.51285 17.3676 3.1955C17.3693 3.1955 17.3701 3.1955 17.3726 3.1955C17.6439 3.5688 17.7387 4.00322 17.6684 4.41901L20.1579 4.83814C20.3382 3.77236 20.0993 2.6236 19.4086 1.68537C18.8129 1.01131 18.258 0.353205 16.8747 0.0919852C15.744 -0.135245 14.9362 0.0633427 13.9414 0.634283L13.9414 0.634761Z" transform="translate(41.0894 43.02044)" id="Path" fill="#1D206A" stroke="none" />
    <path d="M15.6619 0.0782481C14.6714 -0.118431 13.6144 0.0496055 12.709 0.651098L0 9.08747L1.39514 11.1941L14.0991 2.75776C14.7569 2.32143 15.6678 2.50761 16.1697 3.19217C16.1714 3.19217 16.1722 3.19217 16.1747 3.19217C16.4457 3.56452 16.5408 3.99989 16.4705 4.41578L18.96 4.83491C19.14 3.77075 18.8947 2.62466 18.2058 1.68738C18.2048 1.68605 18.2068 1.68738 18.2058 1.68738C17.5568 0.932177 16.7724 0.233395 15.6619 0.0791073L15.6619 0.0782481Z" transform="translate(35.68144 41.59862)" id="Path" fill="#1D206A" stroke="none" />
    <path d="M16.5555 0.479564C16.5153 0.493468 16.4758 0.509401 16.4371 0.527301C16.4371 0.527301 9.08423 3.6902 5.42404 4.67655C4.99455 4.79303 3.86835 4.96202 2.9345 5.07659C2.00068 5.19021 1.21401 5.2685 1.21401 5.2685C0.746608 5.28635 0.327397 5.56143 0.124689 5.9833C-0.0780195 6.40517 -0.03098 6.90463 0.246921 7.28116C0.524822 7.65769 0.988009 7.84954 1.45052 7.77968C1.45052 7.77968 2.26778 7.7033 3.24004 7.58778C4.2123 7.46939 5.29897 7.32522 6.07958 7.11422C10.1622 6.01397 17.1764 2.95065 17.3244 2.88592C19.0008 2.35126 20.8218 2.40568 22.5006 3.01481L29.0424 5.38794C29.1065 5.41236 29.1724 5.43151 29.2396 5.44522L39.7695 7.43845C40.665 7.60745 41.0355 7.87382 41.3027 8.20321C41.5544 8.5135 41.7246 9.00711 41.8598 9.6488C41.8886 10.1376 41.7925 10.446 41.5295 10.7146C41.2588 10.9915 40.714 11.2722 39.7745 11.3705L25.8577 11.275C25.4039 11.2678 24.9811 11.505 24.7505 11.8962C24.5198 12.2875 24.5169 12.7726 24.7428 13.1666C24.9687 13.5606 25.3886 13.8029 25.8425 13.8011L39.8579 13.8966C39.9006 13.8988 39.9434 13.8988 39.9861 13.8966C41.3668 13.7629 42.5297 13.3065 43.3334 12.4856C44.137 11.6645 44.4811 10.5082 44.3884 9.39216C44.3842 9.34536 44.3775 9.29882 44.3681 9.25277C44.196 8.3744 43.9232 7.43225 43.2589 6.61336C42.5946 5.79418 41.558 5.20988 40.237 4.96059L29.8056 2.98703L23.3574 0.64865C21.1753 -0.142838 18.7835 -0.225901 16.5544 0.487297L16.5555 0.479564Z" transform="translate(0.2942192 46.13575)" id="Path" fill="#1D206A" stroke="none" />
    <path d="M4.15999 3.51076C3.70475 3.50415 3.28123 3.74341 3.05168 4.1369C2.82213 4.53039 2.82213 5.01711 3.05168 5.4106C3.28123 5.8041 3.70475 6.04336 4.15999 6.03675L5.38751 6.03675C5.84275 6.04336 6.26627 5.8041 6.49582 5.4106C6.72537 5.01711 6.72537 4.53039 6.49582 4.1369C6.26627 3.74341 5.84275 3.50415 5.38751 3.51076L4.15999 3.51076Z" transform="translate(47.95238 71.48746)" id="Path" fill="#1D206A" stroke="none" />
    <path d="M4.15999 3.51076C3.70475 3.50415 3.28123 3.74341 3.05168 4.1369C2.82213 4.53039 2.82213 5.01711 3.05168 5.4106C3.28123 5.8041 3.70475 6.04336 4.15999 6.03675L5.38751 6.03675C5.84275 6.04336 6.26627 5.8041 6.49582 5.4106C6.72537 5.01711 6.72537 4.53039 6.49582 4.1369C6.26627 3.74341 5.84275 3.50415 5.38751 3.51076L4.15999 3.51076Z" transform="translate(41.64227 71.48746)" id="Path" fill="#1D206A" stroke="none" />
    <path d="M4.75404 2.87765C4.41933 2.88287 4.10041 3.02095 3.86743 3.26151C3.63445 3.50206 3.5065 3.82539 3.51173 4.16036L3.51173 5.38902C3.5053 5.84451 3.74442 6.26817 4.13753 6.49779C4.53065 6.72741 5.01685 6.72741 5.40997 6.49779C5.80309 6.26817 6.04221 5.84451 6.03577 5.38902L6.03577 4.16036C6.04111 3.81855 5.90778 3.48917 5.66625 3.24745C5.42471 3.00573 5.09558 2.8723 4.75404 2.87765L4.75404 2.87765Z" transform="translate(44.79979 74.64656)" id="Path" fill="#1D206A" stroke="none" />
    <path d="M4.75404 2.87765C4.41933 2.88287 4.10041 3.02095 3.86743 3.26151C3.63445 3.50206 3.5065 3.82539 3.51173 4.16036L3.51173 5.38902C3.5053 5.84451 3.74442 6.26817 4.13753 6.49779C4.53065 6.72741 5.01685 6.72741 5.40997 6.49779C5.80309 6.26817 6.04221 5.84451 6.03577 5.38902L6.03577 4.16036C6.04111 3.81855 5.90778 3.48917 5.66625 3.24745C5.42471 3.00573 5.09558 2.8723 4.75404 2.87765L4.75404 2.87765Z" transform="translate(44.79979 68.33156)" id="Path" fill="#1D206A" stroke="none" />
    <path d="M4.77375 6.03679C4.43904 6.03679 4.11803 5.90372 3.88135 5.66685C3.64468 5.42998 3.51172 5.10873 3.51173 4.77375C3.51172 4.43878 3.64468 4.11752 3.88135 3.88065C4.11803 3.64378 4.43904 3.51071 4.77375 3.51071C5.10847 3.51071 5.42947 3.64378 5.66615 3.88065C5.90283 4.11752 6.03578 4.43878 6.03577 4.77375C6.03578 5.10873 5.90283 5.42998 5.66615 5.66685C5.42947 5.90372 5.10847 6.03679 4.77375 6.03679L4.77375 6.03679Z" transform="translate(32.17758 74.01627)" id="Path" fill="#1D206A" stroke="none" />
    <path d="M4.15999 3.51071C3.7056 3.50542 3.28345 3.74499 3.05471 4.13795C2.82598 4.53091 2.82598 5.01659 3.05471 5.40955C3.28345 5.80251 3.7056 6.04208 4.15999 6.03679L5.38751 6.03679C5.8419 6.04208 6.26405 5.80251 6.49279 5.40955C6.72152 5.01659 6.72152 4.53091 6.49279 4.13795C6.26405 3.74499 5.8419 3.50542 5.38751 3.51071L4.15999 3.51071Z" transform="translate(66.88269 61.36888)" id="Path" fill="#1D206A" stroke="none" />
    <path d="M4.15999 3.51071C3.7056 3.50542 3.28345 3.74499 3.05472 4.13795C2.82598 4.53091 2.82598 5.01659 3.05472 5.40955C3.28345 5.80251 3.7056 6.04208 4.15999 6.03679L5.38751 6.03679C5.8419 6.04208 6.26405 5.80251 6.49279 5.40955C6.72152 5.01659 6.72152 4.53091 6.49279 4.13795C6.26405 3.74499 5.8419 3.50542 5.38751 3.51071L4.15999 3.51071Z" transform="translate(60.57259 61.36888)" id="Path" fill="#1D206A" stroke="none" />
    <path d="M4.75404 2.87784C4.05708 2.88872 3.50089 3.46296 3.51173 4.16045L3.51173 5.38883C3.5053 5.84432 3.74442 6.26798 4.13753 6.4976C4.53065 6.72722 5.01685 6.72722 5.40997 6.4976C5.80308 6.26798 6.04221 5.84432 6.03577 5.38883L6.03577 4.16045C6.04108 3.81866 5.90775 3.48931 5.66621 3.24761C5.42467 3.00591 5.09557 2.87249 4.75404 2.87784L4.75404 2.87784Z" transform="translate(63.7301 64.52783)" id="Path" fill="#1D206A" stroke="none" />
    <path d="M4.75404 2.87784C4.05708 2.88872 3.50089 3.46296 3.51173 4.16046L3.51173 5.38884C3.5053 5.84432 3.74442 6.26798 4.13753 6.4976C4.53065 6.72722 5.01685 6.72722 5.40997 6.4976C5.80308 6.26798 6.04221 5.84432 6.03577 5.38884L6.03577 4.16046C6.04108 3.81866 5.90775 3.48931 5.66621 3.24761C5.42467 3.00591 5.09557 2.8725 4.75404 2.87784L4.75404 2.87784Z" transform="translate(63.7301 58.21282)" id="Path" fill="#1D206A" stroke="none" />
    <path d="M4.77375 6.03679C4.07678 6.03679 3.51176 5.47136 3.51173 4.77385C3.51169 4.43886 3.64464 4.11757 3.88132 3.88069C4.118 3.6438 4.43902 3.51071 4.77375 3.51071C5.10848 3.51071 5.4295 3.6438 5.66618 3.88069C5.90286 4.11757 6.03581 4.43886 6.03577 4.77385C6.03574 5.47136 5.47073 6.03679 4.77375 6.03679Z" transform="translate(54.89396 66.43822)" id="Path" fill="#1D206A" stroke="none" />
    <path d="M4.77375 6.03679C4.43902 6.03679 4.118 5.90371 3.88132 5.66682C3.64464 5.42993 3.5117 5.10865 3.51173 4.77366C3.51176 4.07614 4.07678 3.51071 4.77375 3.51071C5.47073 3.51071 6.03574 4.07614 6.03577 4.77366C6.03581 5.10865 5.90286 5.42993 5.66618 5.66682C5.42951 5.90371 5.10849 6.03679 4.77375 6.03679L4.77375 6.03679Z" transform="translate(25.86748 38.02084)" id="Path" fill="#1D206A" stroke="none" />
    <path d="M4.15999 3.51076C3.70475 3.50414 3.28123 3.74341 3.05168 4.1369C2.82213 4.53039 2.82213 5.01711 3.05168 5.4106C3.28123 5.80409 3.70475 6.04336 4.15999 6.03674L5.38751 6.03674C5.84275 6.04336 6.26627 5.80409 6.49582 5.4106C6.72537 5.01711 6.72537 4.53039 6.49582 4.1369C6.26627 3.74341 5.84275 3.50414 5.38751 3.51076L4.15999 3.51076Z" transform="translate(2.519624 3.285541)" id="Path" fill="#1D206A" stroke="none" />
    <path d="M4.15999 3.51076C3.70475 3.50414 3.28123 3.74341 3.05168 4.1369C2.82213 4.53039 2.82213 5.01711 3.05168 5.4106C3.28123 5.80409 3.70475 6.04336 4.15999 6.03674L5.38751 6.03674C5.84275 6.04336 6.26627 5.80409 6.49582 5.4106C6.72537 5.01711 6.72537 4.53039 6.49582 4.1369C6.26627 3.74341 5.84275 3.50414 5.38751 3.51076L4.15999 3.51076Z" transform="translate(8.829728 3.285541)" id="Path" fill="#1D206A" stroke="none" />
    <path d="M4.75404 2.87765C4.41933 2.88288 4.10041 3.02095 3.86743 3.26151C3.63445 3.50207 3.5065 3.82539 3.51173 4.16036L3.51173 5.38903C3.5053 5.84451 3.74442 6.26817 4.13753 6.49779C4.53065 6.72741 5.01685 6.72741 5.40997 6.49779C5.80309 6.26817 6.04221 5.84451 6.03577 5.38903L6.03577 4.16036C6.04111 3.81855 5.90778 3.48917 5.66625 3.24745C5.42471 3.00573 5.09558 2.8723 4.75404 2.87765L4.75404 2.87765Z" transform="translate(5.677137 6.444633)" id="Path" fill="#1D206A" stroke="none" />
    <path d="M4.75404 2.87765C4.41933 2.88288 4.10041 3.02095 3.86743 3.26151C3.63445 3.50207 3.5065 3.82539 3.51173 4.16036L3.51173 5.38903C3.5053 5.84451 3.74442 6.26817 4.13753 6.49779C4.53065 6.72741 5.01685 6.72741 5.40997 6.49779C5.80309 6.26817 6.04221 5.84451 6.03577 5.38903L6.03577 4.16036C6.04111 3.81855 5.90778 3.48917 5.66625 3.24745C5.42471 3.00573 5.09558 2.8723 4.75404 2.87765L4.75404 2.87765Z" transform="translate(5.677137 0.1296279)" id="Path" fill="#1D206A" stroke="none" />
    <path d="M4.77375 6.03674C5.47073 6.03674 6.03574 5.47131 6.03577 4.7738C6.03578 4.43882 5.90283 4.11757 5.66615 3.8807C5.42947 3.64383 5.10847 3.51076 4.77375 3.51076C4.43904 3.51076 4.11803 3.64383 3.88135 3.8807C3.64468 4.11757 3.51172 4.43883 3.51173 4.7738C3.51176 5.47131 4.07678 6.03674 4.77375 6.03674L4.77375 6.03674Z" transform="translate(15.77131 0.7623267)" id="Path" fill="#1D206A" stroke="none" />
    <path d="M4.77375 6.03674C5.47073 6.03674 6.03574 5.47131 6.03577 4.7738C6.03578 4.43882 5.90283 4.11757 5.66615 3.8807C5.42947 3.64383 5.10847 3.51076 4.77375 3.51076C4.43904 3.51076 4.11803 3.64383 3.88135 3.8807C3.64468 4.11757 3.51172 4.43882 3.51173 4.7738C3.51176 5.47131 4.07678 6.03674 4.77375 6.03674L4.77375 6.03674Z" transform="translate(38.48769 32.33726)" id="Path" fill="#1D206A" stroke="none" />
    <path d="M4.77375 6.03679C5.10847 6.03679 5.42947 5.90372 5.66615 5.66685C5.90283 5.42999 6.03578 5.10873 6.03577 4.77375C6.03578 4.43878 5.90283 4.11752 5.66615 3.88065C5.42947 3.64378 5.10847 3.51071 4.77375 3.51071C4.43904 3.51071 4.11803 3.64378 3.88135 3.88065C3.64468 4.11752 3.51172 4.43878 3.51173 4.77375C3.51172 5.10873 3.64468 5.42999 3.88135 5.66685C4.11803 5.90372 4.43904 6.03679 4.77375 6.03679L4.77375 6.03679Z" transform="translate(20.8194 4.551301)" id="Path" fill="#1D206A" stroke="none" />
    <path d="M3.09062 9.57452C4.06783 9.83899 5.31167 9.64135 6.21735 9.02841L16.7255 1.92439L15.0318 0L4.79758 6.93664C4.15672 7.37105 3.25589 7.17151 2.74185 6.49746C2.60782 6.32083 2.50383 6.12606 2.41094 5.92938L0 6.45163C0 6.45163 0.156999 7.30995 0.700023 7.98601C1.26014 8.69443 1.90551 9.25306 3.09062 9.57414L3.09062 9.57452Z" transform="translate(29.6308 27.23598)" id="Path" fill="#1D206A" stroke="none" />
    <path d="M3.21475 25.3707C4.19393 25.575 5.25872 25.428 6.2071 24.858C9.15024 23.1015 21.5436 16.0665 21.5436 16.0665C21.9403 15.8455 22.188 15.4286 22.1926 14.9743C22.1973 14.52 21.9581 14.0981 21.5661 13.869C21.1741 13.6399 20.6894 13.6388 20.2964 13.8662C20.2964 13.8662 7.98491 20.8607 4.91553 22.6922C4.26923 23.078 3.10839 22.74 2.8105 22.3123C2.48469 21.8502 2.45935 21.4291 2.57399 20.98C2.68858 20.5313 3.02055 20.1093 3.18037 19.9982C9.04566 15.917 20.8832 7.84693 20.8832 7.84693C24.1608 5.62408 29.2501 3.25009 34.3119 2.62712C39.6203 1.97407 45.5959 5.13477 52.0393 5.59219L52.0444 5.59219C54.5368 5.76882 58.1103 5.68766 61.1053 5.56355C61.5715 5.56912 62.0029 5.31694 62.2271 4.90772C62.4512 4.4985 62.4317 3.99893 62.1762 3.60851C61.9207 3.2181 61.471 3.00047 61.0066 3.04253C58.0478 3.16378 54.4806 3.23252 52.2217 3.07117C46.5546 2.67018 40.4352 -0.670305 34.0062 0.120705C28.3889 0.811944 23.0446 3.32628 19.4634 5.75507C19.4634 5.75507 7.6323 13.8218 1.74088 17.9213C0.951746 18.4702 0.393021 19.3122 0.128854 20.3487C-0.134953 21.3836 -0.0238488 22.6684 0.745069 23.7626C1.34079 24.6085 2.23569 25.1675 3.21489 25.3709L3.21475 25.3707Z" transform="translate(8.324705 8.461361)" id="Path" fill="#1D206A" stroke="none" />
    <path d="M6.27436 10.7752L20.2158 2.15115L18.8896 0L4.94825 8.62407C4.23599 9.06516 3.34899 8.89713 2.84817 8.21448C2.84648 8.21448 2.84565 8.21448 2.84313 8.21448C2.57182 7.84117 2.47701 7.40676 2.54735 6.99087L0.0578163 6.57174C-0.122402 7.63743 0.116342 8.78628 0.807133 9.72442C1.40289 10.3985 1.95777 11.0567 3.34104 11.3179C4.47179 11.5451 5.27953 11.3465 6.27436 10.7756L6.27436 10.7752Z" transform="translate(15.06547 23.96978)" id="Path" fill="#1D206A" stroke="none" />
    <path d="M3.3551 11.1159C4.34553 11.3126 5.4026 11.1445 6.30803 10.543L19.017 2.10675L17.6218 0L4.91783 8.43637C4.26009 8.87269 3.34922 8.68651 2.84731 8.00195C2.84562 8.00195 2.84479 8.00195 2.84226 8.00195C2.57128 7.6296 2.47619 7.19424 2.54646 6.77844L0.0569514 6.35931C-0.123019 7.42357 0.122256 8.56955 0.811185 9.50702C0.81222 9.50826 0.810176 9.50702 0.811185 9.50702C1.46017 10.2622 2.24456 10.9609 3.35509 11.1153L3.3551 11.1159Z" transform="translate(21.67221 25.60746)" id="Path" fill="#1D206A" stroke="none" />
    <path d="M27.8476 13.4185C27.8878 13.4045 27.9273 13.3886 27.966 13.3707C27.966 13.3707 35.3189 10.2079 38.9791 9.22146C39.4086 9.10498 40.5348 8.93599 41.4686 8.82142C42.4024 8.70781 43.1891 8.62952 43.1891 8.62952C43.6567 8.61197 44.0763 8.33693 44.2791 7.91493C44.482 7.49293 44.435 6.99322 44.1569 6.61659C43.8787 6.23996 43.4152 6.04823 42.9526 6.11843C42.9526 6.11843 42.1353 6.19481 41.1631 6.31033C40.1908 6.42872 39.1041 6.57385 38.3235 6.78389C34.2409 7.88434 27.2267 10.9476 27.0787 11.0122C25.4023 11.5469 23.5813 11.4934 21.9025 10.8833L15.3607 8.51008C15.2966 8.48566 15.2307 8.4665 15.1635 8.45279L4.63357 6.45956C3.73806 6.29057 3.36756 6.0242 3.10039 5.69481C2.84875 5.38451 2.67852 4.89091 2.54333 4.24922C2.5145 3.76134 2.61064 3.452 2.87363 3.18343C3.14431 2.90655 3.68915 2.62586 4.62862 2.52752L18.5454 2.62299C19.0009 2.63295 19.4265 2.39638 19.6588 2.00404C19.8911 1.6117 19.894 1.12452 19.6665 0.72942C19.4389 0.334315 19.0162 0.0926358 18.5606 0.0971056L4.54524 0.0016306C4.50252 -0.000543535 4.45973 -0.000543535 4.41702 0.0016306C3.03631 0.135296 1.87336 0.590712 1.06971 1.41256C0.266054 2.2346 -0.0779758 3.38994 0.0147324 4.50595C0.0189184 4.55244 0.0256757 4.59865 0.0349731 4.64439C0.207115 5.52276 0.479887 6.465 1.14416 7.28389C1.80847 8.10307 2.84512 8.68738 4.16612 8.93657L14.5975 10.9101L21.0457 13.2485C23.2278 14.04 25.6196 14.1231 27.8487 13.4099L27.8476 13.4185Z" transform="translate(31.67329 18.36625)" id="Path" fill="#1D206A" stroke="none" />
  </g>
</svg>