<?xml version="1.0" encoding="utf-8"?>
<svg width="17px" height="25px" viewBox="0 0 17 25" version="1.1" xmlns:xlink="http://www.w3.org/1999/xlink" xmlns="http://www.w3.org/2000/svg">
  <desc>Created with Lunacy</desc>
  <g id="Group-5" transform="translate(0.5 0.5)">
    <path d="M8 16C12.4183 16 16 12.4183 16 8C16 3.58172 12.4183 0 8 0C3.58172 0 0 3.58172 0 8C0 12.4183 3.58172 16 8 16Z" transform="translate(0 5)" id="Oval" fill="#569CE5" stroke="none" />
    <g id="i" fill="#FFFFFF" transform="translate(6.724976 0)">
      <path d="M1.28 9.78Q0.94 9.78 0.715 9.555Q0.49 9.33 0.49 8.99Q0.49 8.64 0.71 8.42Q0.93 8.2 1.28 8.2Q1.63 8.2 1.85 8.42Q2.07 8.64 2.07 8.99Q2.07 9.33 1.845 9.555Q1.62 9.78 1.28 9.78ZM0.68 15.5C0.646667 15.5 0.618333 15.4883 0.595 15.465Q0.56 15.43 0.56 15.38L0.56 10.47Q0.56 10.42 0.595 10.385Q0.63 10.35 0.68 10.35L1.85 10.35Q1.9 10.35 1.935 10.385Q1.97 10.42 1.97 10.47L1.97 15.38Q1.97 15.43 1.935 15.465C1.91167 15.4883 1.88333 15.5 1.85 15.5L0.68 15.5Z" />
    </g>
  </g>
</svg>