<?xml version="1.0" encoding="utf-8"?>
<svg width="113px" height="142px" viewBox="0 0 113 142" version="1.1" xmlns:xlink="http://www.w3.org/1999/xlink" xmlns="http://www.w3.org/2000/svg">
  <desc>Created with Lunacy</desc>
  <g id="Group-Copy-2">
    <g id="Group-Copy">
      <g id="Group-5-Copy" transform="translate(2 0)">
        <path d="M67.5192 7.25617C63.4999 4.07942 55.558 -1.85614 47.246 0.566692C39.2707 2.89141 39.4506 9.70852 30.5506 10.5749C21.6507 11.4413 12.8921 14.4352 12.8921 28.0086C12.8921 41.582 -6.5208 63.1986 2.29692 72.5613C7.46466 78.0484 20.4664 72.5613 47.246 72.5613C61.0261 72.5613 74.8269 65.7803 79.9947 60.2931C85.1624 54.806 78.7104 36.6724 78.7104 28.0086C78.7104 19.3447 71.5386 10.4329 67.5192 7.25617Z" transform="translate(26 34)" id="Shape" fill="#FFECC3" stroke="none" />
        <path d="M87.8884 23.9124C76.6505 11.7559 70.5973 -2.46921e-14 56.766 0C42.9347 2.46539e-14 31.241 14.5752 26.0768 23.9124C20.9126 33.2495 1.31018e-13 44.8371 0 55.257C-1.2981e-13 65.6768 15.3708 72.1935 29.2961 82.4007C39.9578 90.2156 47.506 87.8084 56.766 87.0543C67.4276 86.1859 77.2625 86.6749 82.7374 81.7544C88.2123 76.834 81.5848 68.8944 82.7374 55.5801C83.89 42.2658 99.1263 36.0689 87.8884 23.9124Z" id="Shape" fill="#252A7C" fill-opacity="0.684268057" stroke="none" />
      </g>
      <g id="CoronaLog-Copy" transform="translate(0 118)">
        <g id="CORONA" fill="#262C77">
          <path d="M3.68 18.63Q4.74 19.18 6.14 19.18Q7.54 19.18 8.6 18.64Q9.66 18.1 10.25 17.11Q10.84 16.12 10.84 14.82Q10.84 14.64 10.64 14.64L9.62 14.58Q9.5095 14.58 9.46005 14.6349Q9.42 14.6794 9.42 14.76L9.42 14.8Q9.42 16.22 8.52 17.07Q7.62 17.92 6.14 17.92Q4.66 17.92 3.76 17.06Q2.86 16.2 2.86 14.8L2.86 9.2Q2.86 7.8 3.76 6.94Q4.66 6.08 6.14 6.08Q7.62 6.08 8.52 6.93Q9.42 7.78 9.42 9.2L9.42 9.26Q9.42 9.44 9.62 9.44L10.64 9.38Q10.72 9.38 10.78 9.32Q10.84 9.26 10.84 9.16Q10.84 7.88 10.25 6.9Q9.66 5.92 8.6 5.38Q7.54 4.84 6.14 4.84Q4.74 4.84 3.68 5.39Q2.62 5.94 2.03 6.94Q1.44 7.94 1.44 9.24L1.44 14.74Q1.44 16.06 2.03 17.07Q2.62 18.08 3.68 18.63ZM16.0708 18.58Q17.1508 19.16 18.5708 19.16Q19.9908 19.16 21.0808 18.58Q22.1708 18 22.7608 16.95Q23.3508 15.9 23.3508 14.52L23.3508 9.48Q23.3508 8.1 22.7608 7.05Q22.1708 6 21.0808 5.42Q19.9908 4.84 18.5708 4.84Q17.1508 4.84 16.0708 5.42Q14.9908 6 14.4008 7.05Q13.8108 8.1 13.8108 9.48L13.8108 14.52Q13.8108 15.9 14.4008 16.95Q14.9908 18 16.0708 18.58ZM41.2123 18.58Q42.2923 19.16 43.7123 19.16Q45.1323 19.16 46.2223 18.58Q47.3123 18 47.9023 16.95Q48.4923 15.9 48.4923 14.52L48.4923 9.48Q48.4923 8.1 47.9023 7.05Q47.3123 6 46.2223 5.42Q45.1323 4.84 43.7123 4.84Q42.2923 4.84 41.2123 5.42Q40.1323 6 39.5423 7.05Q38.9523 8.1 38.9523 9.48L38.9523 14.52Q38.9523 15.9 39.5423 16.95Q40.1323 18 41.2123 18.58ZM35.0815 19C34.9615 19 34.8815 18.9533 34.8415 18.86L31.9015 12.66Q31.8815 12.6 31.8215 12.6L28.4215 12.6Q28.3415 12.6 28.3415 12.68L28.3415 18.8C28.3415 18.9333 28.2749 19 28.1415 19L27.1215 19C26.9882 19 26.9215 18.9333 26.9215 18.8L26.9215 5.2Q26.9215 5.1 26.9715 5.05Q27.0215 5 27.1215 5L32.3015 5Q34.0215 5 35.0815 6.07Q36.1415 7.14 36.1415 8.86Q36.1415 10.26 35.3815 11.24Q34.6215 12.22 33.3215 12.5Q33.274 12.5238 33.2688 12.5546Q33.2653 12.5757 33.2815 12.6L36.2815 18.76Q36.3015 18.8 36.3015 18.86C36.3015 18.9533 36.2482 19 36.1415 19L35.0815 19ZM60.4031 5.2Q60.4031 5 60.6031 5L61.6231 5Q61.8231 5 61.8231 5.2L61.8231 18.8Q61.8231 19 61.6231 19L60.6231 19C60.5297 19 60.4497 18.9533 60.3831 18.86L53.5631 7.76Q53.5431 7.7 53.5031 7.71Q53.4631 7.72 53.4631 7.78L53.4831 18.8C53.4831 18.9333 53.4164 19 53.2831 19L52.2631 19C52.1297 19 52.0631 18.9333 52.0631 18.8L52.0631 5.2Q52.0631 5 52.2631 5L53.2631 5Q53.4031 5 53.5031 5.14L60.3231 16.24Q60.3431 16.3 60.3831 16.29Q60.4231 16.28 60.4231 16.22L60.4031 5.2ZM73.8738 18.84C73.9138 18.9467 73.9938 19 74.1138 19L75.1938 19C75.3138 19 75.3738 18.9533 75.3738 18.86L75.3538 18.78L70.9138 5.16Q70.8538 5 70.6738 5L69.3138 5Q69.1338 5 69.0738 5.16L64.6538 18.78C64.6138 18.9267 64.6672 19 64.8138 19L65.8938 19C66.0138 19 66.0938 18.9467 66.1338 18.84L66.9338 16.32Q66.9538 16.26 67.0138 16.26L72.9938 16.26Q73.0538 16.26 73.0738 16.32L73.8738 18.84ZM21.0108 17.02Q20.0908 17.94 18.5708 17.94Q17.0708 17.94 16.1508 17.02Q15.2308 16.1 15.2308 14.58L15.2308 9.46Q15.2308 7.94 16.1508 7.01Q17.0708 6.08 18.5708 6.08Q20.0908 6.08 21.0108 7.01Q21.9308 7.94 21.9308 9.46L21.9308 14.58Q21.9308 16.1 21.0108 17.02ZM46.1523 17.02Q45.2323 17.94 43.7123 17.94Q42.2123 17.94 41.2923 17.02Q40.3723 16.1 40.3723 14.58L40.3723 9.46Q40.3723 7.94 41.2923 7.01Q42.2123 6.08 43.7123 6.08Q45.2323 6.08 46.1523 7.01Q47.0723 7.94 47.0723 9.46L47.0723 14.58Q47.0723 16.1 46.1523 17.02ZM28.4215 6.24Q28.3415 6.24 28.3415 6.32L28.3415 11.38Q28.3415 11.42 28.3615 11.44Q28.3815 11.46 28.4215 11.46L32.1415 11.46Q33.3015 11.46 34.0215 10.74Q34.7415 10.02 34.7415 8.86Q34.7415 7.7 34.0215 6.97Q33.3015 6.24 32.1415 6.24L28.4215 6.24ZM67.3438 15.07Q67.3138 15.04 67.3338 15L69.9338 6.84Q69.9538 6.8 69.9938 6.8Q70.0338 6.8 70.0538 6.84L72.6538 15Q72.6738 15.04 72.6438 15.07Q72.6138 15.1 72.5738 15.1L67.4138 15.1Q67.3738 15.1 67.3438 15.07Z" />
        </g>
        <g id="LOG" fill="#262C77">
          <path d="M94.1754 19.22Q92.6154 19.22 91.4254 18.58Q90.2354 17.94 89.5754 16.79Q88.9154 15.64 88.9154 14.14L88.9154 9.86Q88.9154 8.38 89.5754 7.24Q90.2354 6.1 91.4254 5.47Q92.6154 4.84 94.1754 4.84Q95.7554 4.84 96.9454 5.47Q98.1354 6.1 98.7954 7.24Q99.4554 8.38 99.4554 9.86L99.4554 14.14Q99.4554 15.64 98.7954 16.8Q98.1354 17.96 96.9454 18.59Q95.7554 19.22 94.1754 19.22ZM104.046 18.54Q105.226 19.16 106.766 19.16Q108.306 19.16 109.476 18.57Q110.646 17.98 111.286 16.86Q111.926 15.74 111.926 14.22L111.926 11.58Q111.926 11.48 111.856 11.41Q111.786 11.34 111.686 11.34L106.806 11.34Q106.706 11.34 106.636 11.41Q106.566 11.48 106.566 11.58L106.566 13.42Q106.566 13.52 106.636 13.59Q106.706 13.66 106.806 13.66L109.046 13.66Q109.146 13.66 109.146 13.76L109.146 14.66Q109.146 15.64 108.526 16.19Q107.906 16.74 106.866 16.74Q105.786 16.74 105.086 16.07Q104.386 15.4 104.386 14.32L104.386 9.68Q104.386 8.6 105.036 7.93Q105.686 7.26 106.766 7.26Q107.826 7.26 108.466 7.89Q109.106 8.52 109.106 9.44L109.106 9.5Q109.106 9.6 109.176 9.67Q109.246 9.74 109.346 9.74L111.686 9.74Q111.786 9.74 111.856 9.67Q111.926 9.6 111.926 9.5L111.926 9.36Q111.926 8.1 111.276 7.07Q110.626 6.04 109.456 5.44Q108.286 4.84 106.766 4.84Q105.226 4.84 104.046 5.45Q102.866 6.06 102.216 7.18Q101.566 8.3 101.566 9.76L101.566 14.24Q101.566 15.7 102.216 16.81Q102.866 17.92 104.046 18.54ZM77.7646 19C77.6979 19 77.6413 18.9767 77.5946 18.93Q77.5246 18.86 77.5246 18.76L77.5246 5.24Q77.5246 5.14 77.5946 5.07Q77.6646 5 77.7646 5L80.1046 5Q80.2046 5 80.2746 5.07Q80.3446 5.14 80.3446 5.24L80.3446 16.48Q80.3446 16.58 80.4446 16.58L86.9846 16.58Q87.0846 16.58 87.1546 16.65Q87.2246 16.72 87.2246 16.82L87.2246 18.76Q87.2246 18.86 87.1546 18.93C87.1079 18.9767 87.0513 19 86.9846 19L77.7646 19ZM94.1754 16.8Q95.2754 16.8 95.9554 16.1Q96.6354 15.4 96.6354 14.24L96.6354 9.84Q96.6354 8.68 95.9654 7.97Q95.2954 7.26 94.1754 7.26Q93.0754 7.26 92.4054 7.97Q91.7354 8.68 91.7354 9.84L91.7354 14.24Q91.7354 15.4 92.4054 16.1Q93.0754 16.8 94.1754 16.8Z" />
        </g>
      </g>
    </g>
  </g>
</svg>