<?xml version="1.0" encoding="utf-8"?>
<svg width="29px" height="25px" viewBox="0 0 29 25" version="1.1" xmlns:xlink="http://www.w3.org/1999/xlink" xmlns="http://www.w3.org/2000/svg">
    <desc>Created with Lunacy</desc>
    <g id="noun_analyse-chart_2372995" transform="translate(0.1499023 0.1500244)">
        <g id="Group">
            <path d="M3.49589 0L24.129 0C26.0567 0 27.6249 1.56444 27.6249 3.48746L27.6249 20.4759C27.6249 22.399 26.0567 23.9634 24.129 23.9634L3.49589 23.9634C1.56863 23.9634 0 22.399 0 20.4759L0 3.48746C0 1.56444 1.56863 0 3.49589 0ZM26.3911 20.4759C26.3911 21.7203 25.376 22.7325 24.129 22.7325L3.49589 22.7325C2.24888 22.7325 1.23384 21.7203 1.23384 20.4759L1.23384 3.48746C1.23384 2.24305 2.24888 1.23087 3.49589 1.23087L24.129 1.23087C25.376 1.23087 26.3911 2.24305 26.3911 3.48746L26.3911 20.4759ZM4.21686 11.4672C5.59753 12.1955 7.08925 12.5647 8.55176 12.5647C9.56516 12.5647 10.565 12.3875 11.5035 12.0289C13.14 11.404 14.4092 10.2412 15.7533 9.01078C17.7217 7.20756 19.7575 5.34279 23.1625 5.1077C23.5026 5.08431 23.7593 4.79054 23.7354 4.45123C23.712 4.11233 23.4179 3.85878 23.0774 3.8797C19.2414 4.14434 16.9448 6.24789 14.9184 8.10404C13.664 9.25286 12.4791 10.3385 11.0622 10.8792C9.10123 11.6284 6.81616 11.4459 4.79348 10.3791C4.49242 10.2199 4.11939 10.3348 3.95981 10.6355C3.80065 10.9359 3.91581 11.3084 4.21686 11.4672ZM22.5032 7.70852C22.5032 7.36839 22.7796 7.09309 23.1202 7.09309C23.4607 7.09309 23.7371 7.36839 23.7371 7.70852L23.7371 19.4695C23.7371 19.8092 23.4607 20.0849 23.1202 20.0849L4.50517 20.0849C4.16463 20.0849 3.88825 19.8092 3.88825 19.4695L3.88825 14.1378C3.88825 13.7976 4.16463 13.5223 4.50517 13.5223C4.84571 13.5223 5.12209 13.7976 5.12209 14.1378L5.12209 18.854L8.54189 18.854L8.54189 14.768C8.54189 14.4283 8.81786 14.1525 9.15881 14.1525C9.49935 14.1525 9.77573 14.4283 9.77573 14.768L9.77573 18.854L13.1955 18.854L13.1955 13.0074C13.1955 12.6673 13.4719 12.392 13.8125 12.392C14.153 12.392 14.4294 12.6673 14.4294 13.0074L14.4294 18.854L17.8492 18.854L17.8492 8.98986C17.8492 8.65014 18.1256 8.37442 18.4661 8.37442C18.8071 8.37442 19.083 8.65014 19.083 8.98986L19.083 18.854L22.5032 18.854L22.5032 7.70852Z" id="Shape" fill="#1D206A" fill-rule="evenodd" stroke="#262C77" stroke-width="0.3" />
        </g>
    </g>
</svg>