<?xml version="1.0" encoding="utf-8"?>
<svg width="24px" height="24px" viewBox="0 0 24 24" version="1.1" xmlns:xlink="http://www.w3.org/1999/xlink" xmlns="http://www.w3.org/2000/svg">
  <g id="Group-Copy" transform="translate(0.75 0.75)">
    <g id="Group-3">
      <path d="M18.2901 17.2468L14.3475 16.2615L13.9387 14.6277C16.7489 14.234 18.1732 13.3922 18.1732 13.3922C18.1732 13.3922 16.2603 11.9564 16.2603 6.69611C16.2603 1.43463 14.6659 0.956421 13.8693 0.956421L13.3911 0.956421C12.694 0.259368 12.3154 0 11 0C9.68463 0 5.73853 1.43463 5.73853 6.69611C5.73853 11.9564 3.82568 13.3922 3.82568 13.3922C3.82568 13.3922 5.23253 14.2375 8.06011 14.6288L7.65137 16.2615L3.70989 17.2468C1.52958 17.7922 0 19.7502 0 21.9977L0 22L22 22L22 21.9977C22 19.7502 20.4704 17.7922 18.2901 17.2468L18.2901 17.2468Z" id="Stroke-364" fill="none" stroke="#262C77" stroke-width="1.5" stroke-linecap="round" stroke-linejoin="round" />
    </g>
  </g>
</svg>