<?xml version="1.0" encoding="utf-8"?>
<svg width="28px" height="25px" viewBox="0 0 28 25" version="1.1" xmlns:xlink="http://www.w3.org/1999/xlink" xmlns="http://www.w3.org/2000/svg">
  <desc>Created with Lunacy</desc>
  <g id="noun_Information_2651387">
    <g id="Group-5">
      <g id="Group-6" transform="matrix(-1 8.742278E-08 -8.742278E-08 -1 16 18.72449)">
        <path d="M1.0102 8.05816C1.54898 8.05816 2.02041 7.68776 2.02041 7.25L2.02041 0.808163C2.02041 0.370408 1.58265 -4.16006e-14 1.0102 -4.16006e-14C0.471429 -4.16006e-14 0 0.370408 0 0.808163L0 7.25C0.0336735 7.68776 0.471429 8.05816 1.0102 8.05816Z" transform="translate(0.2020408 1.136868E-12)" id="Path" fill="#281F91" stroke="none" />
        <path d="M1.21224 2.42449C1.88571 2.42449 2.42449 1.88571 2.42449 1.21224C2.42449 0.538776 1.88571 0 1.21224 0C0.538776 0 0 0.538776 0 1.21224C0.0336735 1.91939 0.572449 2.42449 1.21224 2.42449Z" transform="translate(0 10.0449)" id="Path" fill="#281F91" stroke="none" />
      </g>
      <path d="M14.8163 0C18.15 0.0336735 21.248 1.34694 23.6051 3.67041C25.9286 5.99388 27.2082 9.12551 27.2418 12.4255C27.2418 19.2612 21.6857 24.8173 14.85 24.8173L0 24.7837L5.08469 20.2041L4.98367 20.0694C3.3 17.9143 2.35714 15.1867 2.35714 12.3918C2.35714 5.55612 7.94694 0 14.8163 0ZM4.20918 23.2347L14.8163 23.2684C20.7765 23.2684 25.6255 18.4194 25.5918 12.4929C25.5918 9.63061 24.4806 6.90306 22.4602 4.84898C20.4735 2.7949 17.7459 1.65 14.8163 1.65C8.85612 1.65 4.00714 6.46531 4.00714 12.3918C4.00714 15.1194 5.01735 17.7459 6.83571 19.7327L7.40816 20.3388L4.20918 23.2347Z" id="Shape" fill="#26238B" fill-rule="evenodd" stroke="none" />
    </g>
  </g>
</svg>