<?xml version="1.0" encoding="utf-8"?>
<svg width="23px" height="26px" viewBox="0 0 23 26" version="1.1" xmlns:xlink="http://www.w3.org/1999/xlink" xmlns="http://www.w3.org/2000/svg">
  <g id="Group" transform="translate(1 1)">
    <path d="M0.878387 8.03238L8.0324 0.878368Q8.13658 0.774189 8.25047 0.680723Q8.36436 0.587257 8.48686 0.505404Q8.60936 0.423551 8.7393 0.354099Q8.86923 0.284647 9.00535 0.228266Q9.14146 0.171885 9.28245 0.129117Q9.42344 0.0863488 9.56794 0.0576058Q9.71244 0.0288629 9.85906 0.0144219Q10.0057 -1.90722e-05 10.153 -1.90639e-05Q10.3003 -1.90556e-05 10.447 0.014422Q10.5936 0.028863 10.7381 0.0576059Q10.8826 0.0863489 11.0236 0.129117Q11.1646 0.171885 11.3007 0.228266Q11.4368 0.284648 11.5667 0.354099Q11.6967 0.423551 11.8192 0.505404Q11.9417 0.587257 12.0556 0.680723Q12.1694 0.774189 12.2736 0.878368L19.4276 8.03238Q19.6365 8.24124 19.8006 8.48684Q19.9647 8.73244 20.0777 9.00533Q20.1908 9.27822 20.2484 9.56792Q20.306 9.85762 20.306 10.153L20.306 21.126Q20.306 21.2242 20.2964 21.3219Q20.2868 21.4197 20.2676 21.516Q20.2485 21.6123 20.22 21.7063Q20.1914 21.8002 20.1539 21.891Q20.1163 21.9817 20.07 22.0683Q20.0237 22.1549 19.9691 22.2366Q19.9146 22.3182 19.8523 22.3941Q19.79 22.4701 19.7205 22.5395Q19.6511 22.6089 19.5752 22.6712Q19.4993 22.7335 19.4176 22.7881Q19.336 22.8427 19.2493 22.8889Q19.1627 22.9352 19.072 22.9728Q18.9813 23.0104 18.8873 23.0389Q18.7933 23.0674 18.697 23.0866Q18.6007 23.1057 18.503 23.1154Q18.4052 23.125 18.307 23.125L1.999 23.125Q1.9008 23.125 1.80306 23.1154Q1.70533 23.1057 1.60901 23.0866Q1.5127 23.0674 1.41872 23.0389Q1.32474 23.0104 1.23402 22.9728Q1.14329 22.9352 1.05668 22.8889Q0.970069 22.8427 0.888415 22.7881Q0.806761 22.7335 0.730848 22.6712Q0.654935 22.6089 0.585494 22.5395Q0.516052 22.4701 0.453752 22.3941Q0.391452 22.3182 0.336892 22.2366Q0.282333 22.1549 0.236039 22.0683Q0.189746 21.9817 0.152165 21.891Q0.114584 21.8002 0.0860763 21.7063Q0.057569 21.6123 0.0384102 21.516Q0.0192515 21.4197 0.00962573 21.3219Q0 21.2242 0 21.126L0 10.153Q0 9.85762 0.0576249 9.56792Q0.11525 9.27822 0.228285 9.00533Q0.341321 8.73244 0.505423 8.48684Q0.669525 8.24124 0.878387 8.03238L0.878387 8.03238Z" id="Combined-Shape-Copy-2" fill="#FFECC3" stroke="#252A7C" stroke-width="2" />
    <path d="M0.5 0.5L6.11906 6.11906" transform="translate(10 4.000366)" id="Line-4-Copy" fill="none" stroke="#252A7C" stroke-width="2" stroke-linecap="round" stroke-linejoin="round" />
  </g>
</svg>