<?xml version="1.0" encoding="utf-8"?>
<svg width="73px" height="71px" viewBox="0 0 73 71" version="1.1" xmlns:xlink="http://www.w3.org/1999/xlink" xmlns="http://www.w3.org/2000/svg">
  <desc>Created with Lunacy</desc>
  <g id="Group" transform="translate(0.5 0.5)">
    <path d="M10.934 0.36091L60.936 0.0653901Q61.207 0.0637883 61.4778 0.0755369Q61.7486 0.0872854 62.0184 0.112356Q62.2883 0.137426 62.5566 0.175758Q62.8249 0.214089 63.091 0.265588Q63.3571 0.317088 63.6203 0.38163Q63.8835 0.446172 64.1433 0.523601Q64.403 0.601029 64.6586 0.691156Q64.9142 0.781283 65.1651 0.883889Q65.4159 0.986496 65.6614 1.10133Q65.9069 1.21617 66.1464 1.34296Q66.386 1.46975 66.619 1.60818Q66.852 1.74661 67.0779 1.89635Q67.3038 2.0461 67.522 2.20678Q67.7403 2.36747 67.9504 2.53871Q68.1605 2.70995 68.3618 2.89132Q68.5632 3.0727 68.7554 3.26378Q68.9477 3.45486 69.1302 3.65517Q69.3128 3.85548 69.4853 4.06455Q69.6577 4.27361 69.8197 4.49091Q69.9817 4.70821 70.1328 4.93323Q70.2838 5.15824 70.4236 5.39043Q70.5634 5.62261 70.6917 5.8614Q70.8198 6.10019 70.9361 6.345Q71.0524 6.58981 71.1565 6.84005Q71.2606 7.09029 71.3522 7.34536Q71.4439 7.60042 71.5228 7.85969Q71.6018 8.11896 71.6679 8.38181Q71.734 8.64465 71.7871 8.91043Q71.8401 9.17621 71.8801 9.44428Q71.92 9.71235 71.9466 9.98206Q71.9733 10.2518 71.9866 10.5225Q72 10.7932 72 11.0642L72 61.9371Q72 62.0958 71.9899 62.2542Q71.9799 62.4127 71.9598 62.5701Q71.9397 62.7276 71.9096 62.8835Q71.8796 63.0393 71.8397 63.193Q71.7998 63.3466 71.7502 63.4974Q71.7007 63.6482 71.6417 63.7956Q71.5827 63.943 71.5144 64.0863Q71.4462 64.2296 71.369 64.3683Q71.2918 64.507 71.2059 64.6405Q71.1201 64.7741 71.0259 64.9019Q70.9318 65.0297 70.8297 65.1513Q70.7277 65.2728 70.6181 65.3877Q70.5085 65.5026 70.3919 65.6102Q70.2752 65.7179 70.152 65.818Q70.0288 65.918 69.8994 66.0101Q69.7701 66.1021 69.6352 66.1857Q69.5003 66.2694 69.3603 66.3443Q69.2204 66.4192 69.0759 66.4851Q68.9315 66.551 68.7832 66.6076Q68.6349 66.6642 68.4833 66.7113Q68.3317 66.7583 68.1774 66.7957Q68.0231 66.833 67.8668 66.8605Q67.7104 66.888 67.5527 66.9055Q67.3949 66.9231 67.2363 66.9305Q67.0778 66.938 66.9191 66.9354Q66.7603 66.9328 66.6021 66.9201Q66.4439 66.9075 66.2868 66.8848Q66.1296 66.8621 65.9743 66.8295Q65.8189 66.7969 65.6659 66.7545Q65.513 66.7121 65.363 66.6601Q65.213 66.6081 65.0667 66.5467Q64.9203 66.4853 64.7781 66.4147L53.3543 60.7433Q52.7759 60.4561 52.1679 60.2386Q51.5598 60.0211 50.9305 59.8763Q50.3012 59.7314 49.6593 59.6612Q49.0174 59.591 48.3716 59.5964L11.0908 59.9075Q10.8193 59.9097 10.5481 59.8986Q10.2769 59.8875 10.0066 59.863Q9.73623 59.8385 9.46742 59.8007Q9.19862 59.7629 8.93201 59.7119Q8.66541 59.6609 8.40164 59.5968Q8.13787 59.5327 7.87758 59.4556Q7.6173 59.3786 7.36113 59.2888Q7.10496 59.199 6.85354 59.0967Q6.60211 58.9944 6.35603 58.8799Q6.10996 58.7653 5.86983 58.6387Q5.62971 58.5121 5.39612 58.3738Q5.16254 58.2355 4.93606 58.0859Q4.70958 57.9363 4.49075 57.7757Q4.27192 57.6151 4.06129 57.4438Q3.85065 57.2726 3.64872 57.0912Q3.44679 56.9098 3.25405 56.7187Q3.06131 56.5276 2.87823 56.3271Q2.69515 56.1267 2.52219 55.9175Q2.34922 55.7083 2.18678 55.4909Q2.02434 55.2734 1.87283 55.0481Q1.72132 54.8229 1.5811 54.5905Q1.44088 54.3581 1.3123 54.119Q1.18372 53.88 1.06708 53.6348Q0.950451 53.3897 0.846051 53.1392Q0.74165 52.8886 0.649737 52.6332Q0.557824 52.3778 0.478621 52.1182Q0.399418 51.8585 0.333119 51.5953Q0.26682 51.3321 0.213587 51.0659Q0.160353 50.7997 0.120313 50.5312Q0.080274 50.2628 0.0535269 49.9926Q0.0267797 49.7225 0.0133899 49.4514Q8.52693e-13 49.1803 8.52693e-13 48.9088L8.52693e-13 11.3597Q8.52693e-13 11.0907 0.0131493 10.8221Q0.0262986 10.5534 0.0525657 10.2857Q0.0788328 10.018 0.118155 9.75186Q0.157477 9.48575 0.20976 9.22189Q0.262044 8.95803 0.327163 8.69703Q0.392282 8.43604 0.470082 8.17854Q0.547881 7.92104 0.638175 7.66766Q0.728469 7.41427 0.831041 7.1656Q0.933613 6.91693 1.04822 6.67357Q1.16282 6.43022 1.28919 6.19275Q1.41555 5.95528 1.55337 5.72428Q1.6912 5.49328 1.84015 5.26929Q1.98909 5.04529 2.14881 4.82885Q2.30853 4.61241 2.47864 4.40403Q2.64875 4.19566 2.82885 3.99585Q3.00894 3.79604 3.19858 3.60527Q3.38823 3.4145 3.58697 3.23323Q3.78571 3.05196 3.99308 2.88062Q4.20045 2.70928 4.41594 2.54829Q4.63144 2.38729 4.85454 2.23702Q5.07765 2.08675 5.30784 1.94756Q5.53802 1.80838 5.77474 1.68061Q6.01145 1.55285 6.25413 1.43681Q6.49681 1.32076 6.74486 1.21672Q6.99292 1.11268 7.24577 1.02089Q7.49862 0.929105 7.75565 0.849785Q8.01269 0.770465 8.27329 0.703804Q8.53389 0.637143 8.79745 0.583302Q9.061 0.52946 9.32686 0.488566Q9.59273 0.447672 9.86028 0.419823Q10.1278 0.391974 10.3964 0.377237Q10.665 0.3625 10.934 0.36091L10.934 0.36091Z" id="Rectangle-Copy-8" fill="#262C77" stroke="none" />
    <g id="Ja" fill="#FFFFFF" transform="translate(25 15)">
      <path d="M2.457 18.976Q3.384 19.444 4.608 19.444Q5.814 19.444 6.741 18.976Q7.668 18.508 8.181 17.653Q8.694 16.798 8.694 15.682L8.694 6.88Q8.694 6.7 8.514 6.7L7.596 6.7Q7.506 6.7 7.461 6.745Q7.416 6.79 7.416 6.88L7.416 15.682Q7.416 16.87 6.642 17.599Q5.868 18.328 4.608 18.328Q3.33 18.328 2.565 17.599Q1.8 16.87 1.8 15.682L1.8 14.314Q1.8 14.134 1.62 14.134L0.702 14.134Q0.612 14.134 0.567 14.179Q0.522 14.224 0.522 14.314L0.522 15.682Q0.522 16.798 1.026 17.653Q1.53 18.508 2.457 18.976ZM17.478 10.876Q16.596 10.048 14.976 10.048Q13.572 10.048 12.636 10.678Q11.7 11.308 11.556 12.316Q11.5463 12.3452 11.5536 12.3691Q11.5735 12.4337 11.718 12.46L12.69 12.586Q12.852 12.604 12.906 12.424Q13.032 11.83 13.572 11.497Q14.112 11.164 14.976 11.164Q16.056 11.164 16.569 11.695Q17.082 12.226 17.082 13.144L17.082 13.828Q17.082 13.9 17.01 13.9L14.922 13.9Q13.176 13.9 12.195 14.683Q11.214 15.466 11.214 16.816Q11.214 18.148 12.078 18.796Q12.942 19.444 14.22 19.444Q15.102 19.444 15.822 19.165Q16.542 18.886 16.992 18.346Q17.028 18.31 17.055 18.328Q17.082 18.346 17.082 18.382L17.082 19.12C17.082 19.24 17.142 19.3 17.262 19.3L18.18 19.3C18.3 19.3 18.36 19.24 18.36 19.12L18.36 13.072Q18.36 11.704 17.478 10.876ZM16.308 17.815Q15.534 18.346 14.472 18.346Q13.59 18.346 13.041 17.941Q12.492 17.536 12.492 16.744Q12.492 15.88 13.212 15.394Q13.932 14.908 15.12 14.908L17.01 14.908Q17.082 14.908 17.082 14.98L17.082 16.384Q17.082 17.284 16.308 17.815Z" />
    </g>
  </g>
</svg>