<?xml version="1.0" encoding="utf-8"?>
<svg width="121px" height="71px" viewBox="0 0 121 71" version="1.1" xmlns:xlink="http://www.w3.org/1999/xlink" xmlns="http://www.w3.org/2000/svg">
  <desc>Created with Lunacy</desc>
  <path d="M10.999 0L109.001 0Q109.271 0 109.541 0.0132488Q109.81 0.0264976 110.079 0.0529632Q110.348 0.0794288 110.615 0.119048Q110.882 0.158666 111.147 0.211343Q111.412 0.264019 111.674 0.329626Q111.935 0.395233 112.194 0.473613Q112.452 0.551993 112.706 0.642957Q112.961 0.73392 113.21 0.837249Q113.46 0.940577 113.704 1.05602Q113.948 1.17147 114.186 1.29875Q114.424 1.42603 114.656 1.56484Q114.887 1.70366 115.112 1.85367Q115.336 2.00367 115.553 2.16452Q115.77 2.32537 115.979 2.49666Q116.187 2.66795 116.387 2.84928Q116.588 3.03061 116.778 3.22153Q116.969 3.41246 117.151 3.61252Q117.332 3.81259 117.503 4.02131Q117.675 4.23003 117.835 4.4469Q117.996 4.66378 118.146 4.88828Q118.296 5.11279 118.435 5.34438Q118.574 5.57598 118.701 5.81411Q118.829 6.05223 118.944 6.29632Q119.059 6.54041 119.163 6.78986Q119.266 7.03932 119.357 7.29355Q119.448 7.54777 119.526 7.80616Q119.605 8.06454 119.67 8.32646Q119.736 8.58838 119.789 8.8532Q119.841 9.11802 119.881 9.38511Q119.921 9.6522 119.947 9.92091Q119.973 10.1896 119.987 10.4593Q120 10.729 120 10.999L120 61.9371Q120 62.0958 119.99 62.2542Q119.98 62.4127 119.96 62.5701Q119.94 62.7276 119.91 62.8835Q119.88 63.0393 119.84 63.193Q119.8 63.3466 119.75 63.4974Q119.701 63.6482 119.642 63.7956Q119.583 63.943 119.514 64.0863Q119.446 64.2296 119.369 64.3683Q119.292 64.507 119.206 64.6405Q119.12 64.7741 119.026 64.9019Q118.932 65.0297 118.83 65.1513Q118.728 65.2728 118.618 65.3877Q118.508 65.5026 118.392 65.6102Q118.275 65.7179 118.152 65.818Q118.029 65.918 117.899 66.0101Q117.77 66.1021 117.635 66.1857Q117.5 66.2694 117.36 66.3443Q117.22 66.4192 117.076 66.4851Q116.932 66.551 116.783 66.6076Q116.635 66.6642 116.483 66.7113Q116.332 66.7583 116.177 66.7957Q116.023 66.833 115.867 66.8605Q115.71 66.888 115.553 66.9055Q115.395 66.9231 115.236 66.9305Q115.078 66.938 114.919 66.9354Q114.76 66.9328 114.602 66.9201Q114.444 66.9075 114.287 66.8848Q114.13 66.8621 113.974 66.8295Q113.819 66.7969 113.666 66.7545Q113.513 66.7121 113.363 66.6601Q113.213 66.6081 113.067 66.5467Q112.92 66.4853 112.778 66.4147L101.311 60.7217Q100.743 60.4397 100.146 60.2248Q99.5493 60.01 98.9318 59.8651Q98.3143 59.7203 97.6843 59.6474Q97.0542 59.5745 96.42 59.5745L10.999 59.5745Q10.729 59.5745 10.4593 59.5612Q10.1896 59.548 9.92091 59.5215Q9.6522 59.495 9.38511 59.4554Q9.11802 59.4158 8.8532 59.3631Q8.58838 59.3104 8.32646 59.2448Q8.06454 59.1792 7.80616 59.1009Q7.54777 59.0225 7.29355 58.9315Q7.03932 58.8405 6.78986 58.7372Q6.54041 58.6339 6.29632 58.5184Q6.05223 58.403 5.81411 58.2757Q5.57598 58.1484 5.34438 58.0096Q5.11279 57.8708 4.88828 57.7208Q4.66378 57.5708 4.4469 57.4099Q4.23003 57.2491 4.02131 57.0778Q3.81259 56.9065 3.61252 56.7252Q3.41246 56.5439 3.22153 56.3529Q3.03061 56.162 2.84928 55.9619Q2.66795 55.7619 2.49666 55.5532Q2.32537 55.3444 2.16452 55.1276Q2.00368 54.9107 1.85367 54.6862Q1.70366 54.4617 1.56484 54.2301Q1.42603 53.9985 1.29875 53.7604Q1.17147 53.5222 1.05602 53.2781Q0.940578 53.0341 0.837249 52.7846Q0.733921 52.5351 0.642957 52.2809Q0.551993 52.0267 0.473613 51.7683Q0.395233 51.5099 0.329626 51.248Q0.264019 50.9861 0.211343 50.7213Q0.158666 50.4564 0.119048 50.1894Q0.0794288 49.9223 0.0529632 49.6536Q0.0264976 49.3849 0.0132488 49.1152Q3.53884e-15 48.8455 3.53884e-15 48.5755L3.53884e-15 10.999Q3.53884e-15 10.729 0.0132488 10.4593Q0.0264976 10.1896 0.0529632 9.92091Q0.0794288 9.6522 0.119048 9.38511Q0.158666 9.11802 0.211343 8.8532Q0.264019 8.58838 0.329626 8.32646Q0.395233 8.06454 0.473613 7.80616Q0.551993 7.54777 0.642957 7.29355Q0.73392 7.03932 0.837249 6.78986Q0.940577 6.54041 1.05602 6.29632Q1.17147 6.05223 1.29875 5.81411Q1.42603 5.57598 1.56484 5.34438Q1.70366 5.11279 1.85367 4.88828Q2.00367 4.66378 2.16452 4.4469Q2.32537 4.23003 2.49666 4.02131Q2.66795 3.81259 2.84928 3.61252Q3.03061 3.41246 3.22153 3.22153Q3.41246 3.03061 3.61252 2.84928Q3.81259 2.66795 4.02131 2.49666Q4.23003 2.32537 4.4469 2.16452Q4.66378 2.00367 4.88828 1.85367Q5.11279 1.70366 5.34438 1.56484Q5.57598 1.42603 5.81411 1.29875Q6.05223 1.17147 6.29632 1.05602Q6.54041 0.940577 6.78986 0.837249Q7.03932 0.73392 7.29355 0.642957Q7.54777 0.551993 7.80616 0.473613Q8.06454 0.395233 8.32646 0.329626Q8.58838 0.264019 8.8532 0.211343Q9.11802 0.158666 9.38511 0.119048Q9.6522 0.0794288 9.92091 0.0529632Q10.1896 0.0264976 10.4593 0.0132488Q10.729 0 10.999 0Z" transform="translate(0.5 0.5)" id="Rectangle-Copy-9" fill="#262C77" stroke="none" />
</svg>