<?xml version="1.0" encoding="utf-8"?>
<svg width="87px" height="71px" viewBox="0 0 87 71" version="1.1" xmlns:xlink="http://www.w3.org/1999/xlink" xmlns="http://www.w3.org/2000/svg">
  <desc>Created with Lunacy</desc>
  <g id="Group-2" transform="translate(0.5 0.5)">
    <path d="M10.999 0L75.001 0Q75.271 0 75.5407 0.0132488Q75.8104 0.0264976 76.0791 0.0529632Q76.3478 0.0794288 76.6149 0.119048Q76.882 0.158666 77.1468 0.211343Q77.4116 0.264019 77.6735 0.329626Q77.9354 0.395233 78.1938 0.473613Q78.4522 0.551993 78.7064 0.642957Q78.9607 0.73392 79.2101 0.837249Q79.4596 0.940577 79.7037 1.05602Q79.9478 1.17147 80.1859 1.29875Q80.424 1.42603 80.6556 1.56484Q80.8872 1.70366 81.1117 1.85367Q81.3362 2.00367 81.5531 2.16452Q81.77 2.32537 81.9787 2.49666Q82.1874 2.66795 82.3875 2.84928Q82.5875 3.03061 82.7785 3.22153Q82.9694 3.41246 83.1507 3.61252Q83.332 3.81259 83.5033 4.02131Q83.6746 4.23003 83.8355 4.4469Q83.9963 4.66378 84.1463 4.88828Q84.2963 5.11279 84.4352 5.34438Q84.574 5.57598 84.7012 5.81411Q84.8285 6.05223 84.944 6.29632Q85.0594 6.54041 85.1627 6.78986Q85.2661 7.03932 85.357 7.29355Q85.448 7.54777 85.5264 7.80616Q85.6048 8.06454 85.6704 8.32646Q85.736 8.58838 85.7887 8.8532Q85.8413 9.11802 85.8809 9.38511Q85.9206 9.6522 85.947 9.92091Q85.9735 10.1896 85.9868 10.4593Q86 10.729 86 10.999L86 61.9371Q86 62.0958 85.9899 62.2542Q85.9799 62.4127 85.9598 62.5701Q85.9396 62.7276 85.9096 62.8835Q85.8795 63.0393 85.8397 63.193Q85.7998 63.3466 85.7502 63.4974Q85.7007 63.6482 85.6417 63.7956Q85.5827 63.943 85.5144 64.0863Q85.4462 64.2296 85.369 64.3683Q85.2918 64.507 85.2059 64.6405Q85.1201 64.7741 85.0259 64.9019Q84.9318 65.0297 84.8297 65.1513Q84.7276 65.2728 84.6181 65.3877Q84.5085 65.5026 84.3919 65.6102Q84.2752 65.7179 84.152 65.818Q84.0288 65.918 83.8994 66.0101Q83.7701 66.1021 83.6352 66.1857Q83.5003 66.2694 83.3603 66.3443Q83.2204 66.4192 83.0759 66.4851Q82.9315 66.551 82.7832 66.6076Q82.6349 66.6642 82.4833 66.7113Q82.3317 66.7583 82.1774 66.7957Q82.0231 66.833 81.8668 66.8605Q81.7104 66.888 81.5527 66.9055Q81.3949 66.9231 81.2363 66.9305Q81.0778 66.938 80.9191 66.9354Q80.7603 66.9328 80.6021 66.9201Q80.4439 66.9075 80.2868 66.8848Q80.1296 66.8621 79.9743 66.8295Q79.8189 66.7969 79.666 66.7545Q79.513 66.7121 79.363 66.6601Q79.213 66.6081 79.0667 66.5467Q78.9203 66.4853 78.7781 66.4147L67.3109 60.7217Q66.7428 60.4397 66.1461 60.2248Q65.5493 60.01 64.9318 59.8651Q64.3143 59.7203 63.6843 59.6474Q63.0542 59.5745 62.42 59.5745L10.999 59.5745Q10.729 59.5745 10.4593 59.5612Q10.1896 59.548 9.92091 59.5215Q9.6522 59.495 9.38511 59.4554Q9.11802 59.4158 8.8532 59.3631Q8.58838 59.3104 8.32646 59.2448Q8.06454 59.1792 7.80616 59.1009Q7.54777 59.0225 7.29355 58.9315Q7.03932 58.8405 6.78986 58.7372Q6.54041 58.6339 6.29632 58.5184Q6.05223 58.403 5.81411 58.2757Q5.57598 58.1484 5.34438 58.0096Q5.11279 57.8708 4.88828 57.7208Q4.66378 57.5708 4.4469 57.4099Q4.23003 57.2491 4.02131 57.0778Q3.81259 56.9065 3.61252 56.7252Q3.41246 56.5439 3.22153 56.3529Q3.03061 56.162 2.84928 55.9619Q2.66795 55.7619 2.49666 55.5532Q2.32537 55.3444 2.16452 55.1276Q2.00368 54.9107 1.85367 54.6862Q1.70366 54.4617 1.56484 54.2301Q1.42603 53.9985 1.29875 53.7604Q1.17147 53.5222 1.05602 53.2781Q0.940578 53.0341 0.837249 52.7846Q0.733921 52.5351 0.642957 52.2809Q0.551993 52.0267 0.473613 51.7683Q0.395233 51.5099 0.329626 51.248Q0.264019 50.9861 0.211343 50.7213Q0.158666 50.4564 0.119048 50.1894Q0.0794288 49.9223 0.0529632 49.6536Q0.0264976 49.3849 0.0132488 49.1152Q-3.01356e-14 48.8455 -3.01356e-14 48.5755L-3.01356e-14 10.999Q-3.01356e-14 10.729 0.0132488 10.4593Q0.0264976 10.1896 0.0529632 9.92091Q0.0794288 9.6522 0.119048 9.38511Q0.158666 9.11802 0.211343 8.8532Q0.264019 8.58838 0.329626 8.32646Q0.395233 8.06454 0.473613 7.80616Q0.551993 7.54777 0.642957 7.29355Q0.73392 7.03932 0.837249 6.78986Q0.940577 6.54041 1.05602 6.29632Q1.17147 6.05223 1.29875 5.81411Q1.42603 5.57598 1.56484 5.34438Q1.70366 5.11279 1.85367 4.88828Q2.00367 4.66378 2.16452 4.4469Q2.32537 4.23003 2.49666 4.02131Q2.66795 3.81259 2.84928 3.61252Q3.03061 3.41246 3.22153 3.22153Q3.41246 3.03061 3.61252 2.84928Q3.81259 2.66795 4.02131 2.49666Q4.23003 2.32537 4.4469 2.16452Q4.66378 2.00367 4.88828 1.85367Q5.11279 1.70366 5.34438 1.56484Q5.57598 1.42603 5.81411 1.29875Q6.05223 1.17147 6.29632 1.05602Q6.54041 0.940577 6.78986 0.837249Q7.03932 0.73392 7.29355 0.642957Q7.54777 0.551993 7.80616 0.473613Q8.06454 0.395233 8.32646 0.329626Q8.58838 0.264019 8.8532 0.211343Q9.11802 0.158666 9.38511 0.119048Q9.6522 0.0794288 9.92091 0.0529632Q10.1896 0.0264976 10.4593 0.0132488Q10.729 0 10.999 0Z" id="Rectangle-Copy-9" fill="#262C77" stroke="none" />
    <g id="Nein" fill="#FFFFFF" transform="translate(22 15)">
      <path d="M24.066 8.536Q23.634 8.536 23.346 8.248Q23.058 7.96 23.058 7.528Q23.058 7.078 23.346 6.799Q23.634 6.52 24.066 6.52Q24.498 6.52 24.786 6.799Q25.074 7.078 25.074 7.528Q25.074 7.96 24.786 8.248Q24.498 8.536 24.066 8.536ZM9.378 6.7Q9.198 6.7 9.198 6.88L9.216 16.798Q9.216 16.852 9.18 16.861Q9.144 16.87 9.126 16.816L2.988 6.826Q2.898 6.7 2.772 6.7L1.872 6.7Q1.782 6.7 1.737 6.745Q1.692 6.79 1.692 6.88L1.692 19.12Q1.692 19.21 1.737 19.255Q1.782 19.3 1.872 19.3L2.79 19.3C2.91 19.3 2.97 19.24 2.97 19.12L2.952 9.202Q2.952 9.148 2.988 9.139Q3.024 9.13 3.042 9.184L9.18 19.174C9.24 19.258 9.312 19.3 9.396 19.3L10.296 19.3C10.416 19.3 10.476 19.24 10.476 19.12L10.476 6.88Q10.476 6.7 10.296 6.7L9.378 6.7ZM20.664 14.476Q20.664 13.72 20.592 13.216Q20.376 11.704 19.494 10.876Q18.612 10.048 16.974 10.048Q15.66 10.048 14.733 10.75Q13.806 11.452 13.5 12.622Q13.392 13 13.365 13.477Q13.338 13.954 13.338 14.71Q13.338 16.33 13.662 17.194Q14.04 18.256 14.904 18.85Q15.768 19.444 17.046 19.462Q18.216 19.462 19.116 18.967Q20.016 18.472 20.466 17.608Q20.538 17.446 20.394 17.356L19.692 16.942Q19.548 16.852 19.44 17.014Q19.116 17.644 18.54 17.986Q17.964 18.328 17.208 18.328Q16.2 18.328 15.552 17.86Q14.904 17.392 14.706 16.582Q14.634 16.294 14.598 15.304Q14.598 15.268 14.616 15.25Q14.634 15.232 14.67 15.232L20.484 15.232Q20.664 15.232 20.664 15.052L20.664 14.476ZM33.867 10.912Q33.012 10.066 31.572 10.066Q29.934 10.066 29.142 11.182Q29.1313 11.2034 29.1174 11.2057Q29.1079 11.2073 29.097 11.2Q29.07 11.182 29.07 11.146L29.07 10.372Q29.07 10.192 28.89 10.192L27.972 10.192Q27.792 10.192 27.792 10.372L27.792 19.12C27.792 19.24 27.852 19.3 27.972 19.3L28.89 19.3C29.01 19.3 29.07 19.24 29.07 19.12L29.07 13.396Q29.07 12.406 29.682 11.794Q30.294 11.182 31.284 11.182Q32.238 11.182 32.841 11.812Q33.444 12.442 33.444 13.432L33.444 19.12C33.444 19.24 33.504 19.3 33.624 19.3L34.542 19.3C34.662 19.3 34.722 19.24 34.722 19.12L34.722 13.18Q34.722 11.758 33.867 10.912ZM23.562 19.282Q23.382 19.282 23.382 19.102L23.382 10.354Q23.382 10.174 23.562 10.174L24.48 10.174Q24.66 10.174 24.66 10.354L24.66 19.102Q24.66 19.282 24.48 19.282L23.562 19.282ZM15.507 11.623Q16.092 11.164 16.974 11.164Q17.892 11.164 18.495 11.641Q19.098 12.118 19.296 12.928Q19.368 13.27 19.404 14.08Q19.404 14.152 19.332 14.152L14.67 14.152Q14.634 14.152 14.616 14.134Q14.598 14.116 14.598 14.08Q14.634 13.234 14.742 12.856Q14.922 12.082 15.507 11.623Z" />
    </g>
  </g>
</svg>