<?xml version="1.0" encoding="utf-8"?>
<svg width="131px" height="71px" viewBox="0 0 131 71" version="1.1" xmlns:xlink="http://www.w3.org/1999/xlink" xmlns="http://www.w3.org/2000/svg">
  <desc>Created with Lunacy</desc>
  <path d="M10.963 0.389647L118.965 0.0361211Q119.236 0.0352354 119.506 0.0476548Q119.776 0.0600742 120.045 0.0857686Q120.315 0.111463 120.583 0.15037Q120.85 0.189277 121.116 0.241303Q121.381 0.293329 121.644 0.358348Q121.907 0.423367 122.166 0.501221Q122.425 0.579075 122.68 0.669577Q122.935 0.760078 123.185 0.863008Q123.435 0.965938 123.68 1.08105Q123.925 1.19616 124.164 1.32317Q124.403 1.45018 124.635 1.58878Q124.868 1.72738 125.093 1.87725Q125.318 2.02711 125.536 2.18786Q125.754 2.34862 125.963 2.51989Q126.172 2.69115 126.373 2.87251Q126.574 3.05386 126.766 3.24488Q126.957 3.43589 127.139 3.63609Q127.321 3.83629 127.493 4.0452Q127.665 4.25411 127.827 4.47122Q127.988 4.68833 128.139 4.91312Q128.289 5.13791 128.429 5.36983Q128.568 5.60175 128.696 5.84025Q128.824 6.07874 128.94 6.32323Q129.056 6.56772 129.159 6.81761Q129.263 7.0675 129.354 7.32219Q129.446 7.57689 129.524 7.83576Q129.603 8.09464 129.669 8.35707Q129.735 8.6195 129.788 8.88485Q129.841 9.1502 129.88 9.41783Q129.92 9.68547 129.947 9.95473Q129.973 10.224 129.987 10.4942Q130 10.7645 130 11.0351L130 61.9371Q130 62.0958 129.99 62.2542Q129.98 62.4127 129.96 62.5701Q129.94 62.7276 129.91 62.8835Q129.88 63.0393 129.84 63.193Q129.8 63.3466 129.75 63.4974Q129.701 63.6482 129.642 63.7956Q129.583 63.943 129.514 64.0863Q129.446 64.2296 129.369 64.3683Q129.292 64.507 129.206 64.6405Q129.12 64.7741 129.026 64.9019Q128.932 65.0297 128.83 65.1513Q128.728 65.2728 128.618 65.3877Q128.509 65.5026 128.392 65.6102Q128.275 65.7179 128.152 65.818Q128.029 65.918 127.899 66.0101Q127.77 66.1021 127.635 66.1857Q127.5 66.2694 127.36 66.3443Q127.22 66.4192 127.076 66.4851Q126.932 66.551 126.783 66.6076Q126.635 66.6642 126.483 66.7113Q126.332 66.7583 126.177 66.7957Q126.023 66.833 125.867 66.8605Q125.71 66.888 125.553 66.9055Q125.395 66.9231 125.236 66.9305Q125.078 66.938 124.919 66.9354Q124.76 66.9328 124.602 66.9201Q124.444 66.9075 124.287 66.8848Q124.13 66.8621 123.974 66.8295Q123.819 66.7969 123.666 66.7545Q123.513 66.7121 123.363 66.6601Q123.213 66.6081 123.067 66.5467Q122.92 66.4853 122.778 66.4147L111.331 60.7318Q110.758 60.4474 110.156 60.2313Q109.554 60.0152 108.931 59.8703Q108.308 59.7255 107.673 59.6538Q107.037 59.5821 106.397 59.5846L11.0419 59.9569Q10.7713 59.958 10.5009 59.9457Q10.2304 59.9334 9.96098 59.9079Q9.6915 59.8823 9.42361 59.8436Q9.15572 59.8048 8.89006 59.7529Q8.6244 59.701 8.36162 59.6361Q8.09883 59.5712 7.83956 59.4934Q7.58028 59.4157 7.32515 59.3253Q7.07001 59.2349 6.81964 59.132Q6.56926 59.0292 6.32424 58.9141Q6.07922 58.7991 5.84016 58.6721Q5.6011 58.5452 5.36857 58.4066Q5.13604 58.268 4.91062 58.1182Q4.68519 57.9684 4.4674 57.8076Q4.24961 57.6469 4.04 57.4756Q3.83038 57.3044 3.62944 57.123Q3.4285 56.9416 3.23673 56.7506Q3.04495 56.5596 2.86281 56.3594Q2.68066 56.1591 2.50859 55.9502Q2.33651 55.7412 2.17492 55.5241Q2.01333 55.3069 1.86262 55.0821Q1.71191 54.8572 1.57244 54.6252Q1.43297 54.3933 1.30508 54.1547Q1.17719 53.9161 1.06119 53.6716Q0.945191 53.427 0.841362 53.177Q0.737532 52.9271 0.646125 52.6723Q0.554717 52.4175 0.475953 52.1585Q0.397189 51.8996 0.331258 51.637Q0.265328 51.3745 0.212391 51.109Q0.159454 50.8436 0.119639 50.5758Q0.0798237 50.3081 0.0532266 50.0387Q0.0266294 49.7694 0.0133147 49.499Q0 49.2287 0 48.958L0 11.3886Q0 11.1191 0.0131936 10.85Q0.0263873 10.5809 0.0527429 10.3127Q0.0790985 10.0446 0.118553 9.77804Q0.158007 9.51149 0.210466 9.2472Q0.262924 8.98291 0.328261 8.72151Q0.393597 8.4601 0.471656 8.20221Q0.549714 7.94431 0.640306 7.69055Q0.730899 7.43679 0.833808 7.18777Q0.936717 6.93875 1.0517 6.69506Q1.16668 6.45138 1.29345 6.21362Q1.42022 5.97586 1.55849 5.74459Q1.69675 5.51332 1.84617 5.2891Q1.99559 5.06488 2.15582 4.84824Q2.31604 4.63161 2.48667 4.42308Q2.65731 4.21455 2.83795 4.01462Q3.0186 3.8147 3.20881 3.62386Q3.39903 3.43302 3.59836 3.25172Q3.79769 3.07043 4.00566 2.89911Q4.21364 2.72779 4.42974 2.56686Q4.64585 2.40593 4.86959 2.25577Q5.09332 2.10562 5.32413 1.9666Q5.55495 1.82758 5.79229 1.70003Q6.02964 1.57248 6.27294 1.4567Q6.51625 1.34092 6.76493 1.2372Q7.01361 1.13348 7.26708 1.04205Q7.52054 0.950631 7.77818 0.87173Q8.03581 0.792828 8.297 0.726636Q8.55819 0.660444 8.82231 0.60712Q9.08643 0.553797 9.35284 0.513471Q9.61926 0.473144 9.88732 0.445911Q10.1554 0.418677 10.4245 0.404603Q10.6936 0.390528 10.963 0.389647L10.963 0.389647Z" transform="translate(0.5 0.5)" id="Rectangle-Copy-9" fill="#262C77" stroke="none" />
</svg>